<?xml version="1.0" standalone="no"?>
<!DOCTYPE svg PUBLIC "-//W3C//DTD SVG 1.1//EN" "http://www.w3.org/Graphics/SVG/1.1/DTD/svg11.dtd" >
<svg>
<metadata>
Created by FontForge 20090914 at Sat Oct 11 16:05:31 2014
 By www-data
Copyright (c) LeFly, 2004. All rights reserved.
</metadata>
<defs>
<font id="Kenteken" horiz-adv-x="0" >
  <font-face 
    font-family="Kenteken"
    font-weight="400"
    font-stretch="normal"
    units-per-em="1000"
    panose-1="0 0 0 0 0 0 0 0 0 0"
    ascent="800"
    descent="-200"
    x-height="1098"
    cap-height="875"
    bbox="-0.00390625 -224.006 6329 1098.01"
    underline-thickness="50"
    underline-position="-50"
    unicode-range="U+0020-U+00B9"
  />
<missing-glyph horiz-adv-x="472" 
d="M51 288h37l112 -189v189h38v-250h-38l-112 189v-189h-37v250zM269 288h32v-221h117v-29h-149v250zM332 558l7 -23h22l-18 -13l6 -23l-17 14l-19 -14l5 23l-17 13h22zM143 558l7 -23h22l-17 -13l6 -23l-16 14l-20 -14l7 23l-17 13h22zM400 814l6 -20h23l-17 -14l6 -21
l-16 10l-21 -10l7 21l-17 14h22zM49 718l6 -22h23l-17 -13l6 -23l-16 15l-21 -15l8 23l-18 13h22zM425 720l6 -21h21l-17 -13l8 -23l-18 16l-19 -16l7 23l-18 13h23zM75 625l5 -22h22l-18 -14l8 -20l-17 14l-20 -14l7 20l-18 14h23zM402 625l4 -22h23l-17 -14l6 -20l-16 14
l-21 -14l7 20l-17 14h22zM330 881l5 -20h24l-18 -11l8 -24l-17 14l-20 -14l6 24l-17 11h22zM237 911l5 -22h23l-16 -12l6 -23l-17 14l-21 -14l7 23l-16 12h23zM142 884l5 -23h22l-17 -11l7 -24l-17 15l-21 -15l8 24l-17 11h22zM75 814l5 -23h22l-18 -13l8 -23l-17 14
l-20 -14l7 23l-18 13h23zM238 533l4 -23h23l-16 -12l6 -22l-17 14l-21 -14l7 22l-16 12h23z" />
    <glyph glyph-name=".notdef" horiz-adv-x="472" 
d="M51 288h37l112 -189v189h38v-250h-38l-112 189v-189h-37v250zM269 288h32v-221h117v-29h-149v250zM332 558l7 -23h22l-18 -13l6 -23l-17 14l-19 -14l5 23l-17 13h22zM143 558l7 -23h22l-17 -13l6 -23l-16 14l-20 -14l7 23l-17 13h22zM400 814l6 -20h23l-17 -14l6 -21
l-16 10l-21 -10l7 21l-17 14h22zM49 718l6 -22h23l-17 -13l6 -23l-16 15l-21 -15l8 23l-18 13h22zM425 720l6 -21h21l-17 -13l8 -23l-18 16l-19 -16l7 23l-18 13h23zM75 625l5 -22h22l-18 -14l8 -20l-17 14l-20 -14l7 20l-18 14h23zM402 625l4 -22h23l-17 -14l6 -20l-16 14
l-21 -14l7 20l-17 14h22zM330 881l5 -20h24l-18 -11l8 -24l-17 14l-20 -14l6 24l-17 11h22zM237 911l5 -22h23l-16 -12l6 -23l-17 14l-21 -14l7 23l-16 12h23zM142 884l5 -23h22l-17 -11l7 -24l-17 15l-21 -15l8 24l-17 11h22zM75 814l5 -23h22l-18 -13l8 -23l-17 14
l-20 -14l7 23l-18 13h23zM238 533l4 -23h23l-16 -12l6 -22l-17 14l-21 -14l7 22l-16 12h23z" />
    <glyph glyph-name="space" unicode=" " horiz-adv-x="350" 
d="M0 1098h350v-33h-350v33zM0 -190h350v-34h-350v34z" />
    <glyph glyph-name="exclam" unicode="!" horiz-adv-x="454" 
d="M322 875c6.66699 0 10 -3.33203 10 -9.99902v-854c0 -7.33301 -3.33301 -11 -10 -11h-119c-7.33301 0 -11 3.66699 -11 11v691c0 10.667 -4.66699 14 -14 10l-68 -28c-3.33301 -1.33301 -6.5 -0.833008 -9.5 1.5s-4.5 5.5 -4.5 9.5v117c0 5.33301 2.33301 9 7 11l121 49
c3.33301 1.33301 6 2.16602 8 2.49902s4.66699 0.5 8 0.5h82zM0 1098h454v-33h-454v33zM0 -189.999h454v-34h-454v34z" />
    <glyph glyph-name="numbersign" unicode="#" horiz-adv-x="674" 
d="M81 204c6 0 17.501 -4.33496 34.501 -13.002s36.667 -18 59 -28s46 -19.333 71 -28s48.167 -13 69.5 -13s41.166 3 59.499 9s34.166 14.333 47.499 25s23.666 23.334 30.999 38.001s11 30.667 11 48c0 26 -4.5 48.5 -13.5 67.5s-20.667 34.667 -35 47
s-30.5 21.5 -48.5 27.5s-36 9 -54 9h-36c-7.33301 0 -11 3.33301 -11 10v102c0 6.66699 3.66699 10 11 10h38c17.333 0 34.166 3.66699 50.499 11s30.833 17 43.5 29s22.667 26 30 42s11 33 11 51s-3.66699 33.5 -11 46.5s-17.166 23.833 -29.499 32.5
s-26.666 15 -42.999 19s-33.5 6 -51.5 6c-25.333 0 -49.833 -2.5 -73.5 -7.5s-44.5 -10.5 -62.5 -16.5c-21.333 -7.33301 -41.333 -15.666 -60 -24.999c-2.66699 -1.33301 -5.33398 -1.33301 -8.00098 0s-4 3.66602 -4 6.99902v120c0 5.33301 3 9 9 11
c12.667 7.33301 28.334 14.333 47.001 21c16 5.33301 36.5 10.166 61.5 14.499s55.167 6.5 90.5 6.5s68.833 -5 100.5 -15s59.5 -24.333 83.5 -43s43.167 -41.5 57.5 -68.5s21.5 -57.833 21.5 -92.5s-5.83301 -64.5 -17.5 -89.5s-24.834 -46.167 -39.501 -63.5
c-17.333 -20 -36.666 -36.667 -57.999 -50c-2.66699 -1.33301 -3.83398 -3.33301 -3.50098 -6s1.5 -4.66699 3.5 -6c23.333 -13.333 44 -30 62 -50c15.333 -17.333 29.333 -38.666 42 -63.999s19 -55.666 19 -90.999c0 -34.667 -7.5 -67.5 -22.5 -98.5
s-35.167 -58 -60.5 -81s-54.166 -41.167 -86.499 -54.5s-66.166 -20 -101.499 -20s-67.333 4.16699 -96 12.5s-53.667 17.166 -75 26.499c-24.667 11.333 -47 24 -67 38l-4.5 4.5c-1.66699 1.66699 -2.5 3.83398 -2.5 6.50098v115c0 7.33301 3.66699 11 11 11z
M0.000976562 1098h674v-33h-674v33zM0.000976562 -190.002h674v-34h-674v34z" />
    <glyph glyph-name="dollar" unicode="$" horiz-adv-x="753" 
d="M417 870c2 3.33301 4.66699 5 8 5h125c6.66699 0 10 -3.33301 10 -10v-470c0 -6.66699 3.66699 -10 11 -10h83c7.33301 0 11 -3.66699 11 -11v-118c0 -7.33301 -3.66699 -11 -11 -11h-83c-7.33301 0 -11 -3.33301 -11 -10v-224c0 -7.33301 -3.33301 -11 -10 -11h-119
c-7.33301 0 -11 3.66699 -11 11v224c0 6.66699 -3.33301 10 -10 10h-329c-7.33301 0 -11 3.66699 -11 11v125c0 2.66699 0.666992 5 2 7zM420 375c6.66699 0 10.001 3.33398 10.001 10.001v242c0 5.33301 -2.5 8.66602 -7.5 9.99902s-8.83301 0.333008 -11.5 -3l-174 -242
c-2.66699 -4 -2.83398 -7.83301 -0.500977 -11.5s5.5 -5.5 9.5 -5.5h174zM0.000976562 1098h753v-33h-753v33zM0.000976562 -189.999h753v-34h-753v34z" />
    <glyph glyph-name="percent" unicode="%" horiz-adv-x="753" 
d="M0 1098h753v-33h-753v33zM0 -190h753v-34h-753v34zM132 189c3.33301 0 10.6729 -3.00098 22.0059 -9.00098s26.666 -12.667 45.999 -20s42.833 -14 70.5 -20s59.834 -9 96.501 -9c30.667 0 56.667 5.83301 78 17.5s38.666 25.667 51.999 42s23 33.833 29 52.5s9 35 9 49
c0 15.333 -3.33301 31.333 -10 48s-15.834 31.667 -27.501 45s-25.834 24.333 -42.501 33s-35 13 -55 13c-34 0 -64 -0.666992 -90 -2s-48.833 -3 -68.5 -5s-36.834 -3.66699 -51.501 -5s-28 -2 -40 -2c-6.66699 0 -10 3.66699 -10 11v437c0 6.66699 3.33301 10 10 10h418
c7.33301 0 11 -3.33301 11 -10v-111c0 -6.66699 -3.66699 -10 -11 -10h-278c-2.66699 0 -5.16699 -1 -7.5 -3s-3.5 -4.66699 -3.5 -8v-182c0 -2.66699 1.16699 -5.16699 3.5 -7.5s4.83301 -3.5 7.5 -3.5c8.66699 0.666992 18.667 1.33398 30 2.00098
c9.33301 0.666992 20.666 1 33.999 1h46c24 0 51.167 -3.66699 81.5 -11s59.166 -20.5 86.499 -39.5s50.333 -44.833 69 -77.5s28 -74.667 28 -126c0 -37.333 -4.66699 -70.833 -14 -100.5s-21.833 -55.5 -37.5 -77.5s-33.667 -40.667 -54 -56s-41.5 -27.666 -63.5 -36.999
s-44.167 -16.166 -66.5 -20.499s-43.166 -6.5 -62.499 -6.5c-29.333 0 -57.833 3.16699 -85.5 9.5s-52.834 13.166 -75.501 20.499c-26.667 8.66699 -51.667 18.667 -75 30c-6 3.33301 -9 7.66602 -9 12.999v115c0 6.66699 3.33301 10 10 10z" />
    <glyph glyph-name="ampersand" unicode="&#x26;" horiz-adv-x="691" 
d="M0 1098h691v-33h-691v33zM0 -190h691v-34h-691v34zM611 875c6.66699 0 10.001 -3.33008 10.001 -9.99707v-53c0 -3.33301 -4.5 -16.5 -13.5 -39.5s-21 -52 -36 -87l-51 -118.5l-58.5 -134l-159 -359l-10 -17.5l-12 -20.5l-11.5 -18.5
c-3.66699 -5.66699 -6.5 -9.83398 -8.5 -12.501c-2 -3.33301 -5.33301 -5 -10 -5h-121c-4.66699 0 -7.83398 1.16699 -9.50098 3.5s-1.83398 4.83301 -0.500977 7.5c1.33301 2 6 8.16699 14 18.5s17.667 25.166 29 44.499l13 24.5c5.33301 10.333 12.5 25.166 21.5 44.499
l33.5 74.5l49 114.5l69 164.5l92 224.5c2 5.33301 1.83301 9 -0.5 11s-5.16602 3 -8.49902 3h-351c-7.33301 0 -11 3.66699 -11 11v119c0 6.66699 3.66699 10 11 10h530z" />
    <glyph glyph-name="parenleft" unicode="(" horiz-adv-x="753" 
d="M0 1098h753v-33h-753v33zM0 -190h753v-34h-753v34zM534 604c0 21.333 -4.16699 41.5 -12.5 60.5s-19.666 35.667 -33.999 50s-31 25.666 -50 33.999s-39.167 12.5 -60.5 12.5s-41.666 -4.16699 -60.999 -12.5s-36.166 -19.666 -50.499 -33.999s-25.666 -31 -33.999 -50
s-12.5 -39.167 -12.5 -60.5s4.16699 -41.666 12.5 -60.999s19.666 -36.166 33.999 -50.499s31.166 -25.666 50.499 -33.999s39.666 -12.5 60.999 -12.5s41.5 4.16699 60.5 12.5s35.667 19.666 50 33.999s25.666 31.166 33.999 50.499s12.5 39.666 12.5 60.999zM378 314
c-40 0 -77.502 7.66797 -112.502 23.001s-65.667 36 -92 62s-47 56.5 -62 91.5s-22.5 72.5 -22.5 112.5s7.5 77.5 22.5 112.5s35.667 65.5 62 91.5s57 46.667 92 62s72.5 23 112.5 23s77.5 -7.66699 112.5 -23s65.5 -36 91.5 -62s46.5 -56.5 61.5 -91.5
s22.5 -72.5 22.5 -112.5c0 -16.667 -1.66699 -37.834 -5 -63.501s-9.5 -54.167 -18.5 -85.5s-21.167 -64.833 -36.5 -100.5s-35.333 -72.167 -60 -109.5c-36 -55.333 -68.667 -102.166 -98 -140.499l-65 -83.5c-4 -5.33301 -7.83301 -9.83301 -11.5 -13.5
s-7.16699 -5.5 -10.5 -5.5h-122c-6.66699 0 -10 3.66699 -10 11c0 4.66699 1 8.5 3 11.5s3.66699 5.16699 5 6.5c26.667 21.333 50.834 45.833 72.501 73.5l64.5 81.5c19.333 26 33.833 48 43.5 66s16.834 34 21.501 48c2.66699 7.33301 3 12.666 1 15.999
s-7.66699 4.33301 -17 3c-13.333 -2.66699 -28.333 -4 -45 -4z" />
    <glyph glyph-name="parenright" unicode=")" horiz-adv-x="770" 
d="M691 437c0 -73.333 -7.33301 -137.833 -22 -193.5s-35.334 -102.167 -62.001 -139.5s-58.834 -65.5 -96.501 -84.5s-79.5 -28.5 -125.5 -28.5s-87.833 9.5 -125.5 28.5s-69.834 47.167 -96.501 84.5s-47.334 83.833 -62.001 139.5s-22 120.167 -22 193.5
c0 74 7.33301 138.833 22 194.5s35.334 102.167 62.001 139.5s58.834 65.5 96.501 84.5s79.5 28.5 125.5 28.5s87.833 -9.5 125.5 -28.5s69.834 -47.167 96.501 -84.5s47.334 -83.833 62.001 -139.5s22 -120.5 22 -194.5zM552 437c0 102 -15.333 178.667 -46 230
s-71 77 -121 77s-90.167 -25.667 -120.5 -77s-45.5 -128 -45.5 -230c0 -100.667 15.167 -176.834 45.5 -228.501s70.5 -77.5 120.5 -77.5s90.333 25.833 121 77.5s46 127.834 46 228.501zM0 1098h770v-33h-770v33zM0 -190h770v-34h-770v34z" />
    <glyph glyph-name="asterisk" unicode="*" horiz-adv-x="745" 
d="M374 -9c-39.333 0 -76.335 6.99902 -111.002 20.999s-65 33.167 -91 57.5s-46.5 52.666 -61.5 84.999s-22.5 66.5 -22.5 102.5c0 42 9.66699 80 29 114s44 64.333 74 91c8 6.66699 8 14 0 22c-22 21.333 -39.333 46 -52 74s-19 58 -19 90s6.66699 62.333 20 91
s31.5 53.834 54.5 75.501s49.833 38.667 80.5 51s63.667 18.5 99 18.5c34.667 0 67.334 -6.16699 98.001 -18.5s57.5 -29.333 80.5 -51s41.167 -46.834 54.5 -75.501s20 -59 20 -91s-6.16699 -61.667 -18.5 -89s-29.166 -51.666 -50.499 -72.999
c-4 -4 -6.33301 -8.16699 -7 -12.5s1.66602 -8.83301 6.99902 -13.5c30.667 -24.667 54.834 -54.5 72.501 -89.5s26.5 -72.833 26.5 -113.5c0 -36 -7.5 -70.167 -22.5 -102.5s-35.333 -60.666 -61 -84.999s-55.667 -43.5 -90 -57.5s-70.833 -21 -109.5 -21zM521.998 262.999
c0 20.667 -4 40 -12 58s-18.667 33.667 -32 47s-29 23.833 -47 31.5s-37 11.5 -57 11.5c-20.667 0 -40 -3.83301 -58 -11.5s-33.833 -18.167 -47.5 -31.5s-24.334 -29 -32.001 -47s-11.5 -37.333 -11.5 -58s3.83301 -40 11.5 -58s18.334 -33.833 32.001 -47.5
s29.5 -24.334 47.5 -32.001s37.333 -11.5 58 -11.5c20 0 39 3.83301 57 11.5s33.667 18.334 47 32.001s24 29.5 32 47.5s12 37.333 12 58zM490.998 647.999c0 16.667 -3.16699 32.167 -9.5 46.5s-14.666 26.833 -24.999 37.5s-22.666 19.167 -36.999 25.5
s-29.5 9.5 -45.5 9.5c-16.667 0 -32.334 -3.16699 -47.001 -9.5s-27.334 -14.833 -38.001 -25.5s-19 -23.167 -25 -37.5s-9 -29.833 -9 -46.5c0 -16 3 -31.167 9 -45.5s14.333 -26.833 25 -37.5s23.334 -19.167 38.001 -25.5s30.334 -9.5 47.001 -9.5
c16 0 31.167 3.16699 45.5 9.5s26.666 14.833 36.999 25.5s18.666 23.167 24.999 37.5s9.5 29.5 9.5 45.5zM-0.00195312 1098h745v-33h-745v33zM-0.00195312 -190.001h745v-34h-745v34z" />
    <glyph glyph-name="plus" unicode="+" horiz-adv-x="842" 
d="M176 -224c-27.333 0 -50.333 9.5 -69 28.5s-28 42.5 -28 70.5v1124c0 14 2.5 27 7.5 39s11.833 22.5 20.5 31.5s19 16 31 21s24.667 7.5 38 7.5h6056c14 0 26.834 -2.5 38.5 -7.5s21.833 -12 30.5 -21c8.66602 -9 15.5 -19.5 20.5 -31.5s7.5 -25 7.5 -39v-1124
c0 -28 -9.16602 -51.5 -27.5 -70.5s-41.5 -28.5 -69.5 -28.5h-6056zM113 -125c0 -17.333 6.16602 -32.5 18.499 -45.5s27.166 -19.5 44.499 -19.5h6056c17.334 0 32.334 6.5 45 19.5s19 28.167 19 45.5v1124c0 17.333 -6.33398 32.666 -19 45.999s-27.666 20 -44.999 20
h-6056c-17.333 0 -32.166 -6.66699 -44.499 -20s-18.5 -28.666 -18.5 -45.999v-1124zM678.999 1064v-1253h-503c-16.667 0 -31.167 6.33301 -43.5 19s-18.5 27.667 -18.5 45v1124c0 17.333 6.16699 32.5 18.5 45.5s26.833 19.5 43.5 19.5h503zM209.999 38h37v189l112 -189
h38v250h-38v-189l-112 189h-37v-250zM427.999 38h149v29h-117v221h-32v-250zM481.999 535h-22l17 -13l-5 -23l19 14l17 -14l-6 23l18 13h-22l-7 23zM295.999 535h-22l17 -13l-7 -23l20 14l16 -14l-6 23l17 13h-22l-7 23zM551.999 794h-22l17 -14l-7 -21l21 10l16 -10l-6 21
l17 14h-23l-6 20zM200.999 696h-22l18 -13l-8 -23l21 15l16 -15l-6 23l17 13h-23l-6 22zM576.999 699h-23l18 -13l-7 -23l19 16l18 -16l-8 23l17 13h-21l-6 21zM225.999 603h-23l18 -14l-7 -20l20 14l17 -14l-8 20l18 14h-22l-5 22zM551.999 603h-22l17 -14l-7 -20l21 14
l16 -14l-6 20l17 14h-23l-4 22zM481.999 861h-22l17 -11l-6 -24l20 14l17 -14l-8 24l18 11h-24l-5 20zM389.999 889h-23l16 -12l-7 -23l21 14l17 -14l-6 23l16 12h-23l-5 22zM292.999 861h-22l17 -11l-8 -24l21 15l17 -15l-7 24l17 11h-22l-5 23zM225.999 791h-23l18 -13
l-7 -23l20 14l17 -14l-8 23l18 13h-22l-5 23zM389.999 510h-23l16 -12l-7 -22l21 14l17 -14l-6 22l16 12h-23l-4 23z" />
    <glyph glyph-name="comma" unicode="," horiz-adv-x="175" 
 />
    <glyph glyph-name="hyphen" unicode="-" horiz-adv-x="385" 
d="M70 550c0 6.66699 3.66699 10 11 10h224c6.66699 0 10 -3.33301 10 -10v-102c0 -2.66699 -1 -5.16699 -3 -7.5s-4.33301 -3.5 -7 -3.5h-224c-3.33301 0 -6 1.16699 -8 3.5s-3 4.83301 -3 7.5v102z" />
    <glyph glyph-name="period" unicode="." horiz-adv-x="350" 
 />
    <glyph glyph-name="zero" unicode="0" horiz-adv-x="770" 
d="M691 437c0 -73.333 -7.33301 -137.833 -22 -193.5s-35.334 -102.167 -62.001 -139.5s-58.834 -65.5 -96.501 -84.5s-79.5 -28.5 -125.5 -28.5s-87.833 9.5 -125.5 28.5s-69.834 47.167 -96.501 84.5s-47.334 83.833 -62.001 139.5s-22 120.167 -22 193.5
c0 74 7.33301 138.833 22 194.5s35.334 102.167 62.001 139.5s58.834 65.5 96.501 84.5s79.5 28.5 125.5 28.5s87.833 -9.5 125.5 -28.5s69.834 -47.167 96.501 -84.5s47.334 -83.833 62.001 -139.5s22 -120.5 22 -194.5zM552 437c0 102 -15.333 178.667 -46 230
s-71 77 -121 77s-90.167 -25.667 -120.5 -77s-45.5 -128 -45.5 -230c0 -100.667 15.167 -176.834 45.5 -228.501s70.5 -77.5 120.5 -77.5s90.333 25.833 121 77.5s46 127.834 46 228.501z" />
    <glyph glyph-name="one" unicode="1" horiz-adv-x="454" 
d="M322 875c6.66699 0 10 -3.33203 10 -9.99902v-854c0 -7.33301 -3.33301 -11 -10 -11h-119c-7.33301 0 -11 3.66699 -11 11v691c0 10.667 -4.66699 14 -14 10l-68 -28c-3.33301 -1.33301 -6.5 -0.833008 -9.5 1.5s-4.5 5.5 -4.5 9.5v117c0 5.33301 2.33301 9 7 11l121 49
c3.33301 1.33301 6 2.16602 8 2.49902s4.66699 0.5 8 0.5h82z" />
    <glyph glyph-name="two" unicode="2" horiz-adv-x="709" 
d="M122 788c0 5.33301 2 9.33203 6 11.999c17.333 12.667 33.833 24.167 49.5 34.5s31.667 19.333 48 27s33.833 13.334 52.5 17.001s39.667 5.5 63 5.5c52 0 95.333 -8 130 -24s62.5 -35.5 83.5 -58.5s35.833 -47 44.5 -72s13 -46.5 13 -64.5c0 -20 -0.833008 -37 -2.5 -51
s-4.33398 -26.667 -8.00098 -38s-8.16699 -21.833 -13.5 -31.5s-11.666 -20.167 -18.999 -31.5l-259 -355c-2 -4 -2.5 -8 -1.5 -12s4.16699 -6 9.5 -6h301c7.33301 0 11 -3.33301 11 -10v-119c0 -7.33301 -3.66699 -11 -11 -11h-512c-7.33301 0 -11 3.66699 -11 11v61
c0 7.33301 2 14.166 6 20.499s7.66699 11.833 11 16.5l32.5 43l46 60l53.5 70l55 73l137 182c12.667 20.667 21.667 39 27 55s8 34.667 8 56c0 34 -12.333 58.5 -37 73.5s-56 22.5 -94 22.5c-33.333 0 -64.5 -5.5 -93.5 -16.5s-56.167 -24.167 -81.5 -39.5
c-14 -8 -24.833 -13.167 -32.5 -15.5s-11.5 3.83398 -11.5 18.501v97z" />
    <glyph glyph-name="three" unicode="3" horiz-adv-x="674" 
d="M81 204c6 0 17.501 -4.33496 34.501 -13.002s36.667 -18 59 -28s46 -19.333 71 -28s48.167 -13 69.5 -13s41.166 3 59.499 9s34.166 14.333 47.499 25s23.666 23.334 30.999 38.001s11 30.667 11 48c0 26 -4.5 48.5 -13.5 67.5s-20.667 34.667 -35 47
s-30.5 21.5 -48.5 27.5s-36 9 -54 9h-36c-7.33301 0 -11 3.33301 -11 10v102c0 6.66699 3.66699 10 11 10h38c17.333 0 34.166 3.66699 50.499 11s30.833 17 43.5 29s22.667 26 30 42s11 33 11 51s-3.66699 33.5 -11 46.5s-17.166 23.833 -29.499 32.5
s-26.666 15 -42.999 19s-33.5 6 -51.5 6c-25.333 0 -49.833 -2.5 -73.5 -7.5s-44.5 -10.5 -62.5 -16.5c-21.333 -7.33301 -41.333 -15.666 -60 -24.999c-2.66699 -1.33301 -5.33398 -1.33301 -8.00098 0s-4 3.66602 -4 6.99902v120c0 5.33301 3 9 9 11
c12.667 7.33301 28.334 14.333 47.001 21c16 5.33301 36.5 10.166 61.5 14.499s55.167 6.5 90.5 6.5s68.833 -5 100.5 -15s59.5 -24.333 83.5 -43s43.167 -41.5 57.5 -68.5s21.5 -57.833 21.5 -92.5s-5.83301 -64.5 -17.5 -89.5s-24.834 -46.167 -39.501 -63.5
c-17.333 -20 -36.666 -36.667 -57.999 -50c-2.66699 -1.33301 -3.83398 -3.33301 -3.50098 -6s1.5 -4.66699 3.5 -6c23.333 -13.333 44 -30 62 -50c15.333 -17.333 29.333 -38.666 42 -63.999s19 -55.666 19 -90.999c0 -34.667 -7.5 -67.5 -22.5 -98.5
s-35.167 -58 -60.5 -81s-54.166 -41.167 -86.499 -54.5s-66.166 -20 -101.499 -20s-67.333 4.16699 -96 12.5s-53.667 17.166 -75 26.499c-24.667 11.333 -47 24 -67 38l-4.5 4.5c-1.66699 1.66699 -2.5 3.83398 -2.5 6.50098v115c0 7.33301 3.66699 11 11 11z" />
    <glyph glyph-name="four" unicode="4" horiz-adv-x="753" 
d="M417 870c2 3.33301 4.66699 5 8 5h125c6.66699 0 10 -3.33301 10 -10v-470c0 -6.66699 3.66699 -10 11 -10h83c7.33301 0 11 -3.66699 11 -11v-118c0 -7.33301 -3.66699 -11 -11 -11h-83c-7.33301 0 -11 -3.33301 -11 -10v-224c0 -7.33301 -3.33301 -11 -10 -11h-119
c-7.33301 0 -11 3.66699 -11 11v224c0 6.66699 -3.33301 10 -10 10h-329c-7.33301 0 -11 3.66699 -11 11v125c0 2.66699 0.666992 5 2 7zM420 375c6.66699 0 10.001 3.33398 10.001 10.001v242c0 5.33301 -2.5 8.66602 -7.5 9.99902s-8.83301 0.333008 -11.5 -3l-174 -242
c-2.66699 -4 -2.83398 -7.83301 -0.500977 -11.5s5.5 -5.5 9.5 -5.5h174z" />
    <glyph glyph-name="five" unicode="5" horiz-adv-x="753" 
d="M132 189c3.33301 0 10.6729 -3.00098 22.0059 -9.00098s26.666 -12.667 45.999 -20s42.833 -14 70.5 -20s59.834 -9 96.501 -9c30.667 0 56.667 5.83301 78 17.5s38.666 25.667 51.999 42s23 33.833 29 52.5s9 35 9 49c0 15.333 -3.33301 31.333 -10 48
s-15.834 31.667 -27.501 45s-25.834 24.333 -42.501 33s-35 13 -55 13c-34 0 -64 -0.666992 -90 -2s-48.833 -3 -68.5 -5s-36.834 -3.66699 -51.501 -5s-28 -2 -40 -2c-6.66699 0 -10 3.66699 -10 11v437c0 6.66699 3.33301 10 10 10h418c7.33301 0 11 -3.33301 11 -10v-111
c0 -6.66699 -3.66699 -10 -11 -10h-278c-2.66699 0 -5.16699 -1 -7.5 -3s-3.5 -4.66699 -3.5 -8v-182c0 -2.66699 1.16699 -5.16699 3.5 -7.5s4.83301 -3.5 7.5 -3.5c8.66699 0.666992 18.667 1.33398 30 2.00098c9.33301 0.666992 20.666 1 33.999 1h46
c24 0 51.167 -3.66699 81.5 -11s59.166 -20.5 86.499 -39.5s50.333 -44.833 69 -77.5s28 -74.667 28 -126c0 -37.333 -4.66699 -70.833 -14 -100.5s-21.833 -55.5 -37.5 -77.5s-33.667 -40.667 -54 -56s-41.5 -27.666 -63.5 -36.999s-44.167 -16.166 -66.5 -20.499
s-43.166 -6.5 -62.499 -6.5c-29.333 0 -57.833 3.16699 -85.5 9.5s-52.834 13.166 -75.501 20.499c-26.667 8.66699 -51.667 18.667 -75 30c-6 3.33301 -9 7.66602 -9 12.999v115c0 6.66699 3.33301 10 10 10z" />
    <glyph glyph-name="six" unicode="6" horiz-adv-x="753" 
d="M376 570c40 0 77.502 -7.66504 112.502 -22.998s65.667 -36 92 -62s47 -56.5 62 -91.5s22.5 -72.5 22.5 -112.5s-7.5 -77.5 -22.5 -112.5s-35.667 -65.5 -62 -91.5s-57 -46.667 -92 -62s-72.5 -23 -112.5 -23s-77.5 7.66699 -112.5 23s-65.5 36 -91.5 62
s-46.5 56.5 -61.5 91.5s-22.5 72.5 -22.5 112.5c0 17.333 1.66699 38.666 5 63.999s9.5 53.666 18.5 84.999s21.167 64.833 36.5 100.5s35.333 72.167 60 109.5c36 55.333 68.667 102.166 98 140.499l65 83.5c4 5.33301 7.83301 9.83301 11.5 13.5s7.16699 5.5 10.5 5.5h122
c6.66699 0 10 -3.66699 10 -11c0 -4.66699 -1 -8.5 -3 -11.5s-3.66699 -5.16699 -5 -6.5c-26.667 -21.333 -50.834 -45.833 -72.501 -73.5l-64.5 -81.5c-19.333 -26 -33.833 -48 -43.5 -66s-16.834 -34 -21.501 -48c-2.66699 -7.33301 -3 -12.666 -1 -15.999
s7.66699 -4.33301 17 -3c13.333 2.66699 28.333 4 45 4zM219.002 279.002c0 -21.333 4.16699 -41.5 12.5 -60.5s19.666 -35.667 33.999 -50s31 -25.666 50 -33.999s39.167 -12.5 60.5 -12.5s41.666 4.16699 60.999 12.5s36.166 19.666 50.499 33.999s25.666 31 33.999 50
s12.5 39.167 12.5 60.5s-4.16699 41.666 -12.5 60.999s-19.666 36.166 -33.999 50.499s-31.166 25.666 -50.499 33.999s-39.666 12.5 -60.999 12.5s-41.5 -4.16699 -60.5 -12.5s-35.667 -19.666 -50 -33.999s-25.666 -31.166 -33.999 -50.499s-12.5 -39.666 -12.5 -60.999z
" />
    <glyph glyph-name="seven" unicode="7" horiz-adv-x="691" 
d="M611 875c6.66699 0 10.001 -3.33008 10.001 -9.99707v-53c0 -3.33301 -4.5 -16.5 -13.5 -39.5s-21 -52 -36 -87l-51 -118.5l-58.5 -134l-159 -359l-10 -17.5l-12 -20.5l-11.5 -18.5c-3.66699 -5.66699 -6.5 -9.83398 -8.5 -12.501c-2 -3.33301 -5.33301 -5 -10 -5h-121
c-4.66699 0 -7.83398 1.16699 -9.50098 3.5s-1.83398 4.83301 -0.500977 7.5c1.33301 2 6 8.16699 14 18.5s17.667 25.166 29 44.499l13 24.5c5.33301 10.333 12.5 25.166 21.5 44.499l33.5 74.5l49 114.5l69 164.5l92 224.5c2 5.33301 1.83301 9 -0.5 11
s-5.16602 3 -8.49902 3h-351c-7.33301 0 -11 3.66699 -11 11v119c0 6.66699 3.66699 10 11 10h530z" />
    <glyph glyph-name="eight" unicode="8" horiz-adv-x="745" 
d="M374 -9c-39.333 0 -76.335 6.99902 -111.002 20.999s-65 33.167 -91 57.5s-46.5 52.666 -61.5 84.999s-22.5 66.5 -22.5 102.5c0 42 9.66699 80 29 114s44 64.333 74 91c8 6.66699 8 14 0 22c-22 21.333 -39.333 46 -52 74s-19 58 -19 90s6.66699 62.333 20 91
s31.5 53.834 54.5 75.501s49.833 38.667 80.5 51s63.667 18.5 99 18.5c34.667 0 67.334 -6.16699 98.001 -18.5s57.5 -29.333 80.5 -51s41.167 -46.834 54.5 -75.501s20 -59 20 -91s-6.16699 -61.667 -18.5 -89s-29.166 -51.666 -50.499 -72.999
c-4 -4 -6.33301 -8.16699 -7 -12.5s1.66602 -8.83301 6.99902 -13.5c30.667 -24.667 54.834 -54.5 72.501 -89.5s26.5 -72.833 26.5 -113.5c0 -36 -7.5 -70.167 -22.5 -102.5s-35.333 -60.666 -61 -84.999s-55.667 -43.5 -90 -57.5s-70.833 -21 -109.5 -21zM521.998 262.999
c0 20.667 -4 40 -12 58s-18.667 33.667 -32 47s-29 23.833 -47 31.5s-37 11.5 -57 11.5c-20.667 0 -40 -3.83301 -58 -11.5s-33.833 -18.167 -47.5 -31.5s-24.334 -29 -32.001 -47s-11.5 -37.333 -11.5 -58s3.83301 -40 11.5 -58s18.334 -33.833 32.001 -47.5
s29.5 -24.334 47.5 -32.001s37.333 -11.5 58 -11.5c20 0 39 3.83301 57 11.5s33.667 18.334 47 32.001s24 29.5 32 47.5s12 37.333 12 58zM490.998 647.999c0 16.667 -3.16699 32.167 -9.5 46.5s-14.666 26.833 -24.999 37.5s-22.666 19.167 -36.999 25.5
s-29.5 9.5 -45.5 9.5c-16.667 0 -32.334 -3.16699 -47.001 -9.5s-27.334 -14.833 -38.001 -25.5s-19 -23.167 -25 -37.5s-9 -29.833 -9 -46.5c0 -16 3 -31.167 9 -45.5s14.333 -26.833 25 -37.5s23.334 -19.167 38.001 -25.5s30.334 -9.5 47.001 -9.5
c16 0 31.167 3.16699 45.5 9.5s26.666 14.833 36.999 25.5s18.666 23.167 24.999 37.5s9.5 29.5 9.5 45.5z" />
    <glyph glyph-name="nine" unicode="9" horiz-adv-x="753" 
d="M534 604c0 21.333 -4.16699 41.5 -12.5 60.5s-19.666 35.667 -33.999 50s-31 25.666 -50 33.999s-39.167 12.5 -60.5 12.5s-41.666 -4.16699 -60.999 -12.5s-36.166 -19.666 -50.499 -33.999s-25.666 -31 -33.999 -50s-12.5 -39.167 -12.5 -60.5
s4.16699 -41.666 12.5 -60.999s19.666 -36.166 33.999 -50.499s31.166 -25.666 50.499 -33.999s39.666 -12.5 60.999 -12.5s41.5 4.16699 60.5 12.5s35.667 19.666 50 33.999s25.666 31.166 33.999 50.499s12.5 39.666 12.5 60.999zM378 314
c-40 0 -77.502 7.66797 -112.502 23.001s-65.667 36 -92 62s-47 56.5 -62 91.5s-22.5 72.5 -22.5 112.5s7.5 77.5 22.5 112.5s35.667 65.5 62 91.5s57 46.667 92 62s72.5 23 112.5 23s77.5 -7.66699 112.5 -23s65.5 -36 91.5 -62s46.5 -56.5 61.5 -91.5
s22.5 -72.5 22.5 -112.5c0 -16.667 -1.66699 -37.834 -5 -63.501s-9.5 -54.167 -18.5 -85.5s-21.167 -64.833 -36.5 -100.5s-35.333 -72.167 -60 -109.5c-36 -55.333 -68.667 -102.166 -98 -140.499l-65 -83.5c-4 -5.33301 -7.83301 -9.83301 -11.5 -13.5
s-7.16699 -5.5 -10.5 -5.5h-122c-6.66699 0 -10 3.66699 -10 11c0 4.66699 1 8.5 3 11.5s3.66699 5.16699 5 6.5c26.667 21.333 50.834 45.833 72.501 73.5l64.5 81.5c19.333 26 33.833 48 43.5 66s16.834 34 21.501 48c2.66699 7.33301 3 12.666 1 15.999
s-7.66699 4.33301 -17 3c-13.333 -2.66699 -28.333 -4 -45 -4z" />
    <glyph glyph-name="equal" unicode="=" horiz-adv-x="509" 
d="M176 -224c-27.333 0 -50.333 9.5 -69 28.5s-28 42.5 -28 70.5v1124c0 14 2.5 27 7.5 39s11.833 22.5 20.5 31.5s19 16 31 21s24.667 7.5 38 7.5h6056c14 0 26.834 -2.5 38.5 -7.5s21.833 -12 30.5 -21c8.66602 -9 15.5 -19.5 20.5 -31.5s7.5 -25 7.5 -39v-1124
c0 -28 -9.16602 -51.5 -27.5 -70.5s-41.5 -28.5 -69.5 -28.5h-6056zM113 -125c0 -17.333 6.16602 -32.5 18.499 -45.5s27.166 -19.5 44.499 -19.5h6056c17.334 0 32.334 6.5 45 19.5s19 28.167 19 45.5v1124c0 17.333 -6.33398 32.666 -19 45.999s-27.666 20 -44.999 20
h-6056c-17.333 0 -32.166 -6.66699 -44.499 -20s-18.5 -28.666 -18.5 -45.999v-1124z" />
    <glyph glyph-name="at" unicode="@" horiz-adv-x="709" 
d="M122 788c0 5.33301 2 9.33203 6 11.999c17.333 12.667 33.833 24.167 49.5 34.5s31.667 19.333 48 27s33.833 13.334 52.5 17.001s39.667 5.5 63 5.5c52 0 95.333 -8 130 -24s62.5 -35.5 83.5 -58.5s35.833 -47 44.5 -72s13 -46.5 13 -64.5c0 -20 -0.833008 -37 -2.5 -51
s-4.33398 -26.667 -8.00098 -38s-8.16699 -21.833 -13.5 -31.5s-11.666 -20.167 -18.999 -31.5l-259 -355c-2 -4 -2.5 -8 -1.5 -12s4.16699 -6 9.5 -6h301c7.33301 0 11 -3.33301 11 -10v-119c0 -7.33301 -3.66699 -11 -11 -11h-512c-7.33301 0 -11 3.66699 -11 11v61
c0 7.33301 2 14.166 6 20.499s7.66699 11.833 11 16.5l32.5 43l46 60l53.5 70l55 73l137 182c12.667 20.667 21.667 39 27 55s8 34.667 8 56c0 34 -12.333 58.5 -37 73.5s-56 22.5 -94 22.5c-33.333 0 -64.5 -5.5 -93.5 -16.5s-56.167 -24.167 -81.5 -39.5
c-14 -8 -24.833 -13.167 -32.5 -15.5s-11.5 3.83398 -11.5 18.501v97zM0 1098h709v-33h-709v33zM0 -190.001h709v-34h-709v34z" />
    <glyph glyph-name="A" unicode="A" horiz-adv-x="858" 
d="M208 7c-1.33301 -4.66699 -4.33301 -7 -9 -7h-119c-3.33301 0 -6 1.5 -8 4.5s-2.33301 6.16699 -1 9.5l286 854c1.33301 4.66699 4.66602 7 9.99902 7h124c5.33301 0 9 -2.33301 11 -7l285 -854c1.33301 -3.33301 1 -6.5 -1 -9.5s-4.66699 -4.5 -8 -4.5h-119
c-4.66699 -0 -7.66699 2.33301 -9 7l-59 179c-1.33301 4.66699 -4.66602 7 -9.99902 7h-303c-6 0 -9.66699 -2.33301 -11 -7zM441 641c-2 5.33301 -5.33496 8 -10.002 8s-8 -2.66699 -10 -8l-100 -298c-2 -6.66699 0.333008 -10 7 -10h204
c2.66699 0 4.83398 1.5 6.50098 4.5s1.83398 6.16699 0.500977 9.5z" />
    <glyph glyph-name="B" unicode="B" horiz-adv-x="744" 
d="M665 245c0 -34 -6.50098 -65.833 -19.501 -95.5s-30.5 -55.5 -52.5 -77.5s-47.833 -39.5 -77.5 -52.5s-61.5 -19.5 -95.5 -19.5h-304c-7.33301 0 -11 3.66699 -11 11v854c0 6.66699 3.66699 10 11 10h278c32.667 0 63.5 -6.33301 92.5 -19s54.5 -29.834 76.5 -51.501
s39.333 -47.167 52 -76.5s19 -60.666 19 -93.999c0 -36 -7.66699 -69.667 -23 -101s-35.666 -58 -60.999 -80c35.333 -22 63.333 -51.167 84 -87.5s31 -76.5 31 -120.5zM244.999 151c0 -7.33301 3.33301 -11 10 -11h156c16 0 30.833 3 44.5 9s25.667 14.167 36 24.5
s18.5 22.333 24.5 36s9 28.5 9 44.5s-3 30.833 -9 44.5s-14.167 25.667 -24.5 36s-22.333 18.5 -36 24.5s-28.5 9 -44.5 9h-156c-2.66699 0 -5 -1.16699 -7 -3.5s-3 -4.83301 -3 -7.5v-206v0zM244.999 527c0 -2.66699 1 -5.16602 3 -7.49902s4.33301 -3.5 7 -3.5h132
c14.667 0 28.5 2.83301 41.5 8.5s24.5 13.5 34.5 23.5s17.833 21.667 23.5 35s8.5 27.333 8.5 42c0 15.333 -2.83301 29.666 -8.5 42.999s-13.5 25 -23.5 35s-21.5 17.833 -34.5 23.5s-26.833 8.5 -41.5 8.5h-132c-6.66699 0 -10 -3.33301 -10 -10v-198z" />
    <glyph glyph-name="C" unicode="C" horiz-adv-x="709" 
d="M639 38c0 -4.66699 -1.66602 -8.49902 -4.99902 -11.499s-7.66602 -5.5 -12.999 -7.5c-30.667 -12 -59.834 -19.667 -87.501 -23s-56.834 -5 -87.501 -5c-11.333 0 -27.833 1.33301 -49.5 4s-45.5 9.16699 -71.5 19.5s-52.5 25.666 -79.5 45.999s-51.667 48.333 -74 84
s-40.5 80.167 -54.5 133.5s-21 118 -21 194c0 60 5.33301 111.833 16 155.5s24.667 80.667 42 111s37 55 59 74s44.667 33.833 68 44.5s46.333 17.834 69 21.501s43 5.5 61 5.5c21.333 0 40.333 -0.5 57 -1.5s32.167 -2.83301 46.5 -5.5s28 -6.33398 41 -11.001
s26.167 -10.334 39.5 -17.001c4 -2 7.83301 -4.83301 11.5 -8.5s5.5 -9.5 5.5 -17.5v-107c0 -8 -2.5 -11.333 -7.5 -10s-11.167 3.33301 -18.5 6c-27.333 10.667 -54.333 18.667 -81 24s-55 8 -85 8c-58.667 0 -104 -24.667 -136 -74s-48 -127 -48 -233
c0 -57.333 5.66699 -105.5 17 -144.5s26.5 -70.5 45.5 -94.5s41.167 -41.167 66.5 -51.5s52.333 -15.5 81 -15.5c16 0 31.167 0.166992 45.5 0.5s28.5 1.5 42.5 3.5s28 4.83301 42 8.5s29 8.83398 45 15.501c4 1.33301 8 2.33301 12 3s6 -2 6 -8v-116z" />
    <glyph glyph-name="D" unicode="D" horiz-adv-x="770" 
d="M107 0c-7.33301 0 -11 3.66699 -11 11v854c0 6.66699 3.66699 10 11 10h243c48 0 93.167 -11.5 135.5 -34.5s79.5 -54.5 111.5 -94.5s57.167 -86.5 75.5 -139.5s27.5 -109.5 27.5 -169.5s-9.16699 -116.5 -27.5 -169.5s-43.5 -99.333 -75.5 -139s-69.167 -71 -111.5 -94
s-87.5 -34.5 -135.5 -34.5h-243zM350 140c28.667 0 55.834 7.83301 81.501 23.5s48 37 67 64s34 58.5 45 94.5s16.5 74.333 16.5 115s-5.5 79.167 -16.5 115.5s-26 68 -45 95s-41.333 48.333 -67 64s-52.834 23.5 -81.501 23.5h-104c-6.66699 0 -10 -3.33301 -10 -10v-574
c0 -7.33301 3.33301 -11 10 -11h104z" />
    <glyph glyph-name="E" unicode="E" horiz-adv-x="700" 
d="M122 865c0 6.66699 3.66699 10 11 10h451c2.66699 0 5.16699 -1 7.5 -3s3.5 -4.33301 3.5 -7v-119c0 -3.33301 -1.16699 -6 -3.5 -8s-4.83301 -3 -7.5 -3h-311c-7.33301 0 -11 -3.33301 -11 -10v-137c0 -2.66699 1 -5.16699 3 -7.5s4.66699 -3.5 8 -3.5h241
c2.66699 0 5.16699 -1 7.5 -3s3.5 -4.33301 3.5 -7v-119c0 -2.66699 -1.16699 -5 -3.5 -7s-4.83301 -3 -7.5 -3h-241c-3.33301 0 -6 -1.16699 -8 -3.5s-3 -4.83301 -3 -7.5v-277c0 -6.66699 3.66699 -10 11 -10h329c6.66699 0 10 -3.66699 10 -11v-118
c0 -7.33301 -3.33301 -11 -10 -11h-469c-7.33301 0 -11 3.66699 -11 11v854z" />
    <glyph glyph-name="F" unicode="F" horiz-adv-x="674" 
d="M114 865c0 6.66699 3.66699 10 11 10h469c6.66699 0 10 -3.33301 10 -10v-119c0 -7.33301 -3.33301 -11 -10 -11h-330c-6.66699 0 -10 -3.33301 -10 -10v-277c0 -6.66699 3.33301 -10 10 -10h260c2.66699 0 5 -1.16699 7 -3.5s3 -4.83301 3 -7.5v-119
c0 -6.66699 -3.33301 -10 -10 -10h-260c-2.66699 0 -5 -1.16699 -7 -3.5s-3 -4.83301 -3 -7.5v-276c0 -7.33301 -3.66699 -11 -11 -11h-118c-7.33301 0 -11 3.66699 -11 11v854z" />
    <glyph glyph-name="G" unicode="G" horiz-adv-x="753" 
d="M672 411c7.33301 0 10.9971 -3.3252 10.9971 -9.99219v-313c0 -8 -3 -15 -9 -21c-2.66699 -2.66699 -5.66699 -5 -9 -7l-53.5 -29c-16.333 -8.66699 -33.666 -16 -51.999 -22s-39 -10.5 -62 -13.5s-50.833 -4.5 -83.5 -4.5c-53.333 0 -100.333 11.833 -141 35.5
s-74.667 55.667 -102 96s-48 87.666 -62 141.999s-21 111.833 -21 172.5c0 61.333 8.16699 119.166 24.5 173.499s39 101.833 68 142.5s63.5 72.667 103.5 96s83.333 35 130 35c26.667 0 48.5 -0.666992 65.5 -2s32 -3.5 45 -6.5s25.333 -7.33301 37 -13l41.5 -20.5
c3.33301 -1.33301 6.33301 -3 9 -5c6 -3.33301 9 -8.33301 9 -15v-122c0 -4.66699 -1.5 -7.83398 -4.5 -9.50098s-6.5 -2.33398 -10.5 -2.00098s-8 1.33301 -12 3s-7.33301 3.5 -10 5.5c-14.667 9.33301 -28 17.166 -40 23.499s-24.167 11.166 -36.5 14.499
s-26 5.66602 -41 6.99902s-32.5 2 -52.5 2c-28 0 -53.333 -8 -76 -24s-42.167 -38 -58.5 -66s-29 -60.667 -38 -98s-13.5 -77 -13.5 -119s3.16699 -81.5 9.5 -118.5s16.833 -69.333 31.5 -97s33.834 -49.667 57.501 -66s52.834 -24.5 87.501 -24.5c17.333 0 31 0.5 41 1.5
s18.5 2.33301 25.5 4s13.833 3.66699 20.5 6l25 8.5c3.33301 1.33301 6.33301 2.66602 9 3.99902c5.33301 2.66699 8 6 8 10v96c0 6.66699 -3.33301 10 -10 10h-102c-2.66699 0 -5 1.16699 -7 3.5s-3 4.83301 -3 7.5v119c0 6.66699 3.33301 10 10 10h241z" />
    <glyph glyph-name="H" unicode="H" horiz-adv-x="769" 
d="M96 865c0 6.66699 3.66699 10 11 10h118c7.33301 0 11 -3.33301 11 -10v-347c0 -6.66699 3.33301 -10 10 -10h277c2.66699 0 5.16699 1 7.5 3s3.5 4.33301 3.5 7v347c0 6.66699 3.33301 10 10 10h119c6.66699 0 10 -3.33301 10 -10v-854c0 -7.33301 -3.33301 -11 -10 -11
h-119c-6.66699 0 -10 3.66699 -10 11v346c0 2.66699 -1.16699 5.16699 -3.5 7.5s-4.83301 3.5 -7.5 3.5h-277c-2.66699 0 -5 -1.16699 -7 -3.5s-3 -4.83301 -3 -7.5v-346c0 -7.33301 -3.66699 -11 -11 -11h-118c-7.33301 0 -11 3.66699 -11 11v854z" />
    <glyph glyph-name="I" unicode="I" horiz-adv-x="384" 
d="M122 864c0 7.33301 3.66699 11 11 11h118c7.33301 0 11 -3.66699 11 -11v-854c0 -6.66699 -3.33301 -10 -10 -10h-119c-7.33301 -0 -11 3.33301 -11 10v854z" />
    <glyph glyph-name="J" unicode="J" horiz-adv-x="613" 
d="M359 865c0 6.66699 3.33496 10.0029 10.002 10.0029h119c7.33301 0 11 -3.33301 11 -10v-637c0 -32.667 -6.66699 -63.334 -20 -92.001s-31.5 -53.667 -54.5 -75s-49.833 -38.333 -80.5 -51s-63.667 -19 -99 -19c-30 0 -58.333 4.66699 -85 14s-50.667 21.666 -72 36.999
c-3.33301 2 -7.16602 5.16699 -11.499 9.5s-6.5 9.83301 -6.5 16.5v105c0 5.33301 2.16699 8.66602 6.5 9.99902s8.16602 0.333008 11.499 -3c17.333 -16.667 39.333 -29 66 -37s56 -12 88 -12c16 0 31.167 3.16699 45.5 9.5s26.666 14.833 36.999 25.5
s18.666 23.167 24.999 37.5s9.5 29.5 9.5 45.5v616z" />
    <glyph glyph-name="K" unicode="K" horiz-adv-x="760" 
d="M236 641c0 -2.66699 0.667969 -5.00098 2.00098 -7.00098l40 -53c6 -7.33301 12 -7.33301 18 0l173 289c2 3.33301 5 5 9 5h124c5.33301 0 8.83301 -1.83301 10.5 -5.5s1.5 -7.16699 -0.5 -10.5l-239 -399c-2 -4 -1.66699 -8 1 -12l313 -430
c2.66699 -4.66699 3.16699 -9 1.5 -13s-4.83398 -5.66699 -9.50098 -5h-133c-3.33301 0 -6.33301 1.33301 -9 4l-282 388c-3.33301 3.33301 -7.33301 4.33301 -12 3s-7 -4.66602 -7 -9.99902v-374c0 -7.33301 -3.66699 -11 -11 -11h-118c-7.33301 0 -11 3.66699 -11 11v854
c0 6.66699 3.66699 10 11 10h118c7.33301 0 11 -3.33301 11 -10v-224z" />
    <glyph glyph-name="L" unicode="L" horiz-adv-x="682" 
d="M122 864c0 7.33301 3.66699 11 11 11h118c7.33301 0 11 -3.66699 11 -11v-714c0 -6.66699 3.33301 -10 10 -10h330c6.66699 0 10 -3.66699 10 -11v-119c0 -6.66699 -3.33301 -10 -10 -10h-469c-7.33301 -0 -11 3.33301 -11 10v854z" />
    <glyph glyph-name="M" unicode="M" horiz-adv-x="884" 
d="M70 865c0 6.66699 3.66699 10 11 10h148c5.33301 0 9 -1.66699 11 -5l192 -387c2.66699 -4 6 -6 10 -6s7.33301 2 10 6l192 387c2 3.33301 5.33301 5 10 5h149c7.33301 0 11 -3.33301 11 -10v-854c0 -7.33301 -3.66699 -11 -11 -11h-119c-6.66699 0 -10 3.66699 -10 11
v540c0 5.33301 -2.83301 8.5 -8.5 9.5s-9.5 -0.833008 -11.5 -5.5l-202 -404c-2.66699 -4.66699 -6 -7 -10 -7s-7.33301 2.33301 -10 7l-203 404c-2.66699 5.33301 -6.5 7.5 -11.5 6.5s-7.5 -4.5 -7.5 -10.5v-540c0 -7.33301 -3.66699 -11 -11 -11h-118
c-7.33301 0 -11 3.66699 -11 11v854z" />
    <glyph glyph-name="N" unicode="N" horiz-adv-x="769" 
d="M96 865c0 6.66699 3.66797 9.99707 11.001 9.99707h122c5.33301 0 8.66602 -1.66699 9.99902 -5l275 -550c3.33301 -5.33301 7.5 -7.66602 12.5 -6.99902s7.5 4.33398 7.5 11.001v541c0 6.66699 3.33301 10 10 10h119c6.66699 0 10 -3.33301 10 -10v-854
c0 -7.33301 -3.33301 -11 -10 -11h-122c-5.33301 0 -9 1.66699 -11 5l-275 550c-2.66699 5.33301 -6.5 7.83301 -11.5 7.5s-7.5 -4.16602 -7.5 -11.499v-540c0 -7.33301 -3.66699 -11 -11 -11h-118c-7.33301 0 -11 3.66699 -11 11v854z" />
    <glyph glyph-name="O" unicode="O" horiz-adv-x="770" 
d="M691 437c0 -60.667 -7.99902 -118.169 -23.999 -172.502s-38 -101.666 -66 -141.999s-60.5 -72.333 -97.5 -96s-76.5 -35.5 -118.5 -35.5s-81.5 11.833 -118.5 35.5s-69.5 55.667 -97.5 96s-50 87.666 -66 141.999s-24 111.833 -24 172.5c0 36 2.83301 70.833 8.5 104.5
s13.834 65.5 24.501 95.5c0.666992 1.33301 2 2.33301 4 3c1.33301 0.666992 3 1 5 1s4.66699 -1.33301 8 -4l92 -78c6 -5.33301 9 -9 9 -11s-0.666992 -6 -2 -12c-6 -30.667 -9 -63.667 -9 -99c0 -42 4.33301 -81.5 13 -118.5s20.5 -69.333 35.5 -97s32.667 -49.667 53 -66
s41.833 -24.5 64.5 -24.5s44.167 8.16699 64.5 24.5s38 38.333 53 66s27 60 36 97s13.5 76.5 13.5 118.5s-4.5 81.667 -13.5 119s-21 70 -36 98s-32.667 50 -53 66s-41.833 24 -64.5 24c-32 0 -61.333 -15.333 -88 -46c-1.33301 -2.66699 -3.33301 -4.66699 -6 -6
c-5.33301 -2.66699 -11 -1 -17 5l-76 65c-6 4.66699 -8.33301 9.83398 -7 15.501s4.66602 11.167 9.99902 16.5c25.333 28 53.666 50 84.999 66s64.333 24 99 24c42 0 81.5 -11.667 118.5 -35s69.5 -55.333 97.5 -96s50 -88.167 66 -142.5s24 -112.166 24 -173.499z" />
    <glyph glyph-name="P" unicode="P" horiz-adv-x="735" 
d="M393 333c-7.33301 0 -12 2.66504 -14 7.99805l-26 119c-2 6 0.333008 10.333 7 13h35c17.333 0 33.833 3.5 49.5 10.5s29.5 16.333 41.5 28s21.5 25.5 28.5 41.5s10.5 33 10.5 51s-3.5 35 -10.5 51s-16.5 29.833 -28.5 41.5s-26 21 -42 28s-33 10.5 -51 10.5h-121
c-6.66699 0 -10 -3.33301 -10 -10v-714c0 -7.33301 -3.66699 -11 -11 -11h-118c-7.33301 0 -11 3.66699 -11 11v854c0 6.66699 3.66699 10 11 10h260c37.333 0 72.5 -7.16699 105.5 -21.5s61.833 -33.666 86.5 -57.999s44.167 -53 58.5 -86s21.5 -68.167 21.5 -105.5
s-7.16699 -72.5 -21.5 -105.5s-33.833 -61.667 -58.5 -86s-53.5 -43.666 -86.5 -57.999s-68.167 -21.5 -105.5 -21.5z" />
    <glyph glyph-name="Q" unicode="Q" horiz-adv-x="787" 
d="M385 -9c-46 0 -87.8359 9.49805 -125.503 28.498s-69.834 47.167 -96.501 84.5s-47.334 83.833 -62.001 139.5s-22 120.167 -22 193.5c0 74 7.33301 138.833 22 194.5s35.334 102.167 62.001 139.5s58.834 65.5 96.501 84.5s79.5 28.5 125.5 28.5
c46.667 0 88.834 -9.5 126.501 -28.5s69.834 -47.167 96.501 -84.5s47.167 -83.833 61.5 -139.5s21.5 -120.5 21.5 -194.5c0 -58 -4.5 -110.167 -13.5 -156.5s-21.833 -87.166 -38.5 -122.499c-1.33301 -2 -2.33301 -4.16699 -3 -6.5s-1.66699 -4.16602 -3 -5.49902
c-1.33301 -2 -2.33301 -4 -3 -6c-2 -3.33301 -2 -6.66602 0 -9.99902l84 -112c3.33301 -4.66699 4 -8.83398 2 -12.501s-5.66699 -5.5 -11 -5.5h-148c-4 -0 -7 1.33301 -9 4l-9 14c-5.33301 8 -12.666 9.66699 -21.999 5c-39.333 -21.333 -83.333 -32 -132 -32z
M384.997 130.998c13.333 0 24.999 2.00391 34.999 6.00391s14.5 9.16699 13.5 15.5s-3.5 12.166 -7.5 17.499l-28 39l-31 42l-36 47c-3.33301 4.66699 -4 8.66699 -2 12s5.66699 5 11 5h148c4.66699 0 8.33398 -2 11.001 -6l18 -25
c3.33301 -4.66699 7.33301 -6.33398 12 -5.00098s7.66699 5.66602 9 12.999c4 20.667 7.5 43 10.5 67s4.5 50 4.5 78c0 102.667 -15.5 179.5 -46.5 230.5s-71.5 76.5 -121.5 76.5c-49.333 0 -89.333 -25.667 -120 -77s-46 -128 -46 -230
c0 -100.667 15.333 -176.834 46 -228.501s70.667 -77.5 120 -77.5z" />
    <glyph glyph-name="R" unicode="R" horiz-adv-x="759" 
d="M225 875c7.33301 0 11.001 -3.33594 11.001 -10.0029v-382c0 -2.66699 1 -5.16699 3 -7.5s4.33301 -3.5 7 -3.5h121c18 0 35 3.5 51 10.5s30 16.5 42 28.5s21.5 26 28.5 42s10.5 33 10.5 51s-3.5 35 -10.5 51s-16.5 29.833 -28.5 41.5s-25.833 21 -41.5 28
s-32.167 10.5 -49.5 10.5h-35c-5.33301 0 -8 1.33301 -8 4s0.333008 5.33398 1 8.00098l26 119c2 6 6.66699 9 14 9c37.333 0 72.5 -7.16699 105.5 -21.5s61.833 -33.666 86.5 -57.999s44.167 -53 58.5 -86s21.5 -68.167 21.5 -105.5c0 -30 -5 -58.167 -15 -84.5
s-23.5 -50.333 -40.5 -72s-37 -41 -60 -58s-47.5 -31.167 -73.5 -42.5c-4.66699 -2 -8 -4.66699 -10 -8s-1.66699 -6.66602 1 -9.99902l245 -311c3.33301 -4 4.16602 -8 2.49902 -12s-4.83398 -6 -9.50098 -6h-131c-3.33301 -0 -6.33301 1.33301 -9 4l-257 325
c-1.33301 2.66699 -3.66602 4 -6.99902 4h-29c-6.66699 0 -10 -3.66699 -10 -11v-311c0 -7.33301 -3.66699 -11 -11 -11h-118c-7.33301 0 -11 3.66699 -11 11v854c0 6.66699 3.66699 10 11 10h118z" />
    <glyph glyph-name="S" unicode="S" horiz-adv-x="744" 
d="M613 684c0 -7.33301 -2.5 -10.8389 -7.5 -10.5059s-11.167 2.83301 -18.5 7.5c-30.667 18.667 -64.5 33.834 -101.5 45.501s-76.167 17.5 -117.5 17.5c-42 0 -73 -10.5 -93 -31.5s-30 -48.5 -30 -82.5c0 -20 13.667 -40 41 -60s66.333 -40.667 117 -62
c26 -10.667 53.5 -24.167 82.5 -40.5s55.5 -35.166 79.5 -56.499s43.833 -45.833 59.5 -73.5s23.5 -58.5 23.5 -92.5c0 -45.333 -9.5 -84.166 -28.5 -116.499s-42.5 -58.666 -70.5 -78.999s-58.333 -35.166 -91 -44.499s-62.667 -14 -90 -14
c-25.333 0 -49.666 2.66699 -72.999 8s-45.833 12.5 -67.5 21.5s-42.667 19 -63 30s-39.833 22.167 -58.5 33.5c-6.66699 4 -11.334 7.33301 -14.001 10s-4 7.66699 -4 15v106c0 7.33301 2.33301 10.833 7 10.5s11 -3.16602 19 -8.49902c21.333 -14 43.5 -26.333 66.5 -37
s45.5 -19.667 67.5 -27s43.333 -12.833 64 -16.5s39.334 -5.5 56.001 -5.5c17.333 0 34.333 2.5 51 7.5s31.5 12.167 44.5 21.5s23.667 21.166 32 35.499s12.5 30.833 12.5 49.5c0 13.333 -4.66699 26.333 -14 39s-21.833 25 -37.5 37s-33.667 23.333 -54 34
s-41.833 20.667 -64.5 30s-47.5 20.333 -74.5 33s-52.167 28.5 -75.5 47.5s-42.833 41.833 -58.5 68.5s-23.5 58.667 -23.5 96c0 40 7.16699 75.833 21.5 107.5s33.666 58.334 57.999 80.001s52.333 38.167 84 49.5s64.5 17 98.5 17c31.333 0 58.166 -1.83301 80.499 -5.5
s42.333 -8.5 60 -14.5s33.334 -13 47.001 -21s26.834 -16.333 39.501 -25c7.33301 -5.33301 12.166 -9.5 14.499 -12.5s3.5 -8.16699 3.5 -15.5v-106z" />
    <glyph glyph-name="T" unicode="T" horiz-adv-x="700" 
d="M70 865c0 6.66699 3.66699 10 11 10h538c7.33301 0 11 -3.33301 11 -10v-119c0 -7.33301 -3.66699 -11 -11 -11h-188c-7.33301 0 -11 -3.33301 -11 -10v-714c0 -7.33301 -3.33301 -11 -10 -11h-119c-7.33301 0 -11 3.66699 -11 11v714c0 6.66699 -3.33301 10 -10 10h-189
c-7.33301 0 -11 3.66699 -11 11v119z" />
    <glyph glyph-name="U" unicode="U" horiz-adv-x="769" 
d="M673 280c0 -40 -7.50098 -77.5 -22.501 -112.5s-35.5 -65.5 -61.5 -91.5s-56.5 -46.667 -91.5 -62s-72.5 -23 -112.5 -23s-77.5 7.66699 -112.5 23s-65.667 36 -92 62s-47 56.5 -62 91.5s-22.5 72.5 -22.5 112.5v585c0 6.66699 3.66699 10 11 10h118
c7.33301 0 11 -3.33301 11 -10v-585c0 -20.667 4 -40 12 -58s18.667 -33.667 32 -47s29 -24 47 -32s37.333 -12 58 -12s40 4 58 12s33.833 18.667 47.5 32s24.334 29 32.001 47s11.5 37.333 11.5 58v585c0 6.66699 3.33301 10 10 10h119c6.66699 0 10 -3.33301 10 -10v-585z
" />
    <glyph glyph-name="V" unicode="V" horiz-adv-x="763" 
d="M71 861c-2 7.33301 0.331055 12 6.99805 14h120c5.33301 0 9 -2.33301 11 -7l163 -583c0.666992 -2.66699 3 -5 7 -7c7.33301 -1.33301 12 1.66699 14 9l162 581c2.66699 4.66699 6.33398 7 11.001 7h117c6.66699 0 10 -3.33301 10 -10v-4l-239 -854
c-1.33301 -1.33301 -2.66602 -2.83301 -3.99902 -4.5s-3.66602 -2.5 -6.99902 -2.5h-122c-2.66699 -0 -4.83398 0.833008 -6.50098 2.5l-4.5 4.5z" />
    <glyph glyph-name="W" unicode="W" horiz-adv-x="752" 
d="M70 863c0 6 3.33203 10 9.99902 12h92c5.33301 0 9 -3 11 -9l77 -381c1.33301 -5.33301 4.66602 -8 9.99902 -8c6 0 9.66699 2.66699 11 8l62 381c2 6 6 9 12 9h42c6 0 10 -3 12 -9l59 -381c1.33301 -5.33301 5 -8 11 -8c6.66699 0 10.667 2.66699 12 8l77 381
c3.33301 6 7.33301 9 12 9h91c2.66699 0 5.16699 -1 7.5 -3s3.5 -4.33301 3.5 -7v-2l-171 -854c0 -2.66699 -1.16699 -4.83398 -3.5 -6.50098s-5.16602 -2.5 -8.49902 -2.5h-62c-2.66699 0 -5.16699 0.833008 -7.5 2.5s-3.5 3.83398 -3.5 6.50098l-38 315
c-0.666992 6.66699 -4.66699 10 -12 10c-6.66699 0 -10.334 -3.33301 -11.001 -10l-39 -315c0 -2.66699 -1.16699 -4.83398 -3.5 -6.50098s-5.16602 -2.5 -8.49902 -2.5h-61c-3.33301 0 -6.16602 0.833008 -8.49902 2.5s-3.5 3.83398 -3.5 6.50098z" />
    <glyph glyph-name="X" unicode="X" horiz-adv-x="757" 
d="M369 600c2 -4 5.00098 -6 9.00098 -6s7 2 9 6l145 270c2 3.33301 5.66699 5 11 5h115c5.33301 0 8.66602 -1.83301 9.99902 -5.5s1 -7.16699 -1 -10.5l-215 -401c-1.33301 -3.33301 -1.33301 -6.66602 0 -9.99902l232 -432c2.66699 -4 3.16699 -7.66699 1.5 -11
s-5.16699 -5 -10.5 -5h-115c-5.33301 0 -8.66602 1.66699 -9.99902 5l-163 301c-2 4 -5 6 -9 6s-7 -2 -9 -6l-163 -301c-2 -3.33301 -5.33301 -5 -10 -5h-115c-4.66699 0 -7.83398 1.83301 -9.50098 5.5s-1.5 7.16699 0.5 10.5l233 432c2 3.33301 2 6.66602 0 9.99902
l-216 401c-4.66699 10.667 -1.66699 16 9 16h115c5.33301 0 9 -1.66699 11 -5z" />
    <glyph glyph-name="Y" unicode="Y" horiz-adv-x="732" 
d="M71 859c-1.33301 4.66699 -1 8.5 1 11.5s4.66699 4.5 8 4.5h117c4.66699 0 8 -2.33301 10 -7l149 -329c2 -4 5.66699 -6 11 -6s8.66602 2 9.99902 6l147 329c2 4.66699 5.66699 7 11 7h117c4 0 6.83301 -1.83301 8.5 -5.5s1.83398 -7.16699 0.500977 -10.5l-223 -470
c-0.666992 -2 -1 -4 -1 -6v-372c0 -7.33301 -3.66699 -11 -11 -11h-119c-6.66699 0 -10 3.66699 -10 11v372c0 2 -0.333008 3.66699 -1 5z" />
    <glyph glyph-name="Z" unicode="Z" horiz-adv-x="716" 
d="M621 11c0 -7.33301 -3.33203 -11 -9.99902 -11h-530c-7.33301 0 -11 3.66699 -11 11v126c0 2.66699 0.666992 5 2 7l380 575c2.66699 4 3.16699 7.66699 1.5 11s-4.5 5 -8.5 5h-329c-7.33301 0 -11 3.66699 -11 11v119c0 6.66699 3.66699 10 11 10h495
c6.66699 0 10 -3.33301 10 -10v-125c0 -3.33301 -0.666992 -6 -2 -8l-380 -576c-3.33301 -4.66699 -3.83301 -8.5 -1.5 -11.5s5.16602 -4.5 8.49902 -4.5h365c6.66699 0 10 -3.33301 10 -10v-119z" />
    <glyph glyph-name="bracketleft" unicode="[" horiz-adv-x="349" 
d="M349 1065l-164 -0.000976562c-17.333 0 -32.166 -6.66699 -44.499 -20s-18.5 -28.666 -18.5 -45.999v-1124c0 -17.333 6.16699 -32.5 18.5 -45.5s27.166 -19.5 44.499 -19.5h164v-34h-164c-27.333 0 -50.333 9.5 -69 28.5s-28 42.5 -28 70.5v1124c0 14 2.5 27 7.5 39
s11.833 22.5 20.5 31.5s19 16 31 21s24.667 7.5 38 7.5h164v-33z" />
    <glyph glyph-name="bracketright" unicode="]" horiz-adv-x="349" 
d="M0 1098l164 0.000976562c13.333 0 26 -2.5 38 -7.5s22.333 -12 31 -21s15.5 -19.5 20.5 -31.5s7.5 -25 7.5 -39v-1124c0 -28 -9.33301 -51.5 -28 -70.5s-41.667 -28.5 -69 -28.5h-164v34h164c17.333 0 32.166 6.5 44.499 19.5s18.5 28.167 18.5 45.5v1124
c0 17.333 -6.16699 32.666 -18.5 45.999s-27.166 20 -44.499 20h-164v33z" />
    <glyph glyph-name="asciicircum" unicode="^" horiz-adv-x="753" 
d="M0 1098h753v-33h-753v33zM0 -190h753v-34h-753v34zM376 570c40 0 77.502 -7.66504 112.502 -22.998s65.667 -36 92 -62s47 -56.5 62 -91.5s22.5 -72.5 22.5 -112.5s-7.5 -77.5 -22.5 -112.5s-35.667 -65.5 -62 -91.5s-57 -46.667 -92 -62s-72.5 -23 -112.5 -23
s-77.5 7.66699 -112.5 23s-65.5 36 -91.5 62s-46.5 56.5 -61.5 91.5s-22.5 72.5 -22.5 112.5c0 17.333 1.66699 38.666 5 63.999s9.5 53.666 18.5 84.999s21.167 64.833 36.5 100.5s35.333 72.167 60 109.5c36 55.333 68.667 102.166 98 140.499l65 83.5
c4 5.33301 7.83301 9.83301 11.5 13.5s7.16699 5.5 10.5 5.5h122c6.66699 0 10 -3.66699 10 -11c0 -4.66699 -1 -8.5 -3 -11.5s-3.66699 -5.16699 -5 -6.5c-26.667 -21.333 -50.834 -45.833 -72.501 -73.5l-64.5 -81.5c-19.333 -26 -33.833 -48 -43.5 -66
s-16.834 -34 -21.501 -48c-2.66699 -7.33301 -3 -12.666 -1 -15.999s7.66699 -4.33301 17 -3c13.333 2.66699 28.333 4 45 4zM219.002 279.002c0 -21.333 4.16699 -41.5 12.5 -60.5s19.666 -35.667 33.999 -50s31 -25.666 50 -33.999s39.167 -12.5 60.5 -12.5
s41.666 4.16699 60.999 12.5s36.166 19.666 50.499 33.999s25.666 31 33.999 50s12.5 39.167 12.5 60.5s-4.16699 41.666 -12.5 60.999s-19.666 36.166 -33.999 50.499s-31.166 25.666 -50.499 33.999s-39.666 12.5 -60.999 12.5s-41.5 -4.16699 -60.5 -12.5
s-35.667 -19.666 -50 -33.999s-25.666 -31.166 -33.999 -50.499s-12.5 -39.666 -12.5 -60.999z" />
    <glyph glyph-name="underscore" unicode="_" horiz-adv-x="385" 
d="M0 1098h385v-33h-385v33zM0 -190h385v-34h-385v34zM70 550c0 6.66699 3.66699 10 11 10h224c6.66699 0 10 -3.33301 10 -10v-102c0 -2.66699 -1 -5.16699 -3 -7.5s-4.33301 -3.5 -7 -3.5h-224c-3.33301 0 -6 1.16699 -8 3.5s-3 4.83301 -3 7.5v102z" />
    <glyph glyph-name="a" unicode="a" horiz-adv-x="858" 
d="M208 7c-1.33301 -4.66699 -4.33301 -7 -9 -7h-119c-3.33301 0 -6 1.5 -8 4.5s-2.33301 6.16699 -1 9.5l286 854c1.33301 4.66699 4.66602 7 9.99902 7h124c5.33301 0 9 -2.33301 11 -7l285 -854c1.33301 -3.33301 1 -6.5 -1 -9.5s-4.66699 -4.5 -8 -4.5h-119
c-4.66699 -0 -7.66699 2.33301 -9 7l-59 179c-1.33301 4.66699 -4.66602 7 -9.99902 7h-303c-6 0 -9.66699 -2.33301 -11 -7zM441 641c-2 5.33301 -5.33496 8 -10.002 8s-8 -2.66699 -10 -8l-100 -298c-2 -6.66699 0.333008 -10 7 -10h204
c2.66699 0 4.83398 1.5 6.50098 4.5s1.83398 6.16699 0.500977 9.5zM-0.00195312 1098h858v-33h-858v33zM-0.00195312 -190h858v-34h-858v34z" />
    <glyph glyph-name="b" unicode="b" horiz-adv-x="744" 
d="M665 245c0 -34 -6.50098 -65.833 -19.501 -95.5s-30.5 -55.5 -52.5 -77.5s-47.833 -39.5 -77.5 -52.5s-61.5 -19.5 -95.5 -19.5h-304c-7.33301 0 -11 3.66699 -11 11v854c0 6.66699 3.66699 10 11 10h278c32.667 0 63.5 -6.33301 92.5 -19s54.5 -29.834 76.5 -51.501
s39.333 -47.167 52 -76.5s19 -60.666 19 -93.999c0 -36 -7.66699 -69.667 -23 -101s-35.666 -58 -60.999 -80c35.333 -22 63.333 -51.167 84 -87.5s31 -76.5 31 -120.5zM244.999 151c0 -7.33301 3.33301 -11 10 -11h156c16 0 30.833 3 44.5 9s25.667 14.167 36 24.5
s18.5 22.333 24.5 36s9 28.5 9 44.5s-3 30.833 -9 44.5s-14.167 25.667 -24.5 36s-22.333 18.5 -36 24.5s-28.5 9 -44.5 9h-156c-2.66699 0 -5 -1.16699 -7 -3.5s-3 -4.83301 -3 -7.5v-206v0zM244.999 527c0 -2.66699 1 -5.16602 3 -7.49902s4.33301 -3.5 7 -3.5h132
c14.667 0 28.5 2.83301 41.5 8.5s24.5 13.5 34.5 23.5s17.833 21.667 23.5 35s8.5 27.333 8.5 42c0 15.333 -2.83301 29.666 -8.5 42.999s-13.5 25 -23.5 35s-21.5 17.833 -34.5 23.5s-26.833 8.5 -41.5 8.5h-132c-6.66699 0 -10 -3.33301 -10 -10v-198zM-0.000976562 1098
h744v-33h-744v33zM-0.000976562 -189.999h744v-34h-744v34z" />
    <glyph glyph-name="c" unicode="c" horiz-adv-x="709" 
d="M639 38c0 -4.66699 -1.66602 -8.49902 -4.99902 -11.499s-7.66602 -5.5 -12.999 -7.5c-30.667 -12 -59.834 -19.667 -87.501 -23s-56.834 -5 -87.501 -5c-11.333 0 -27.833 1.33301 -49.5 4s-45.5 9.16699 -71.5 19.5s-52.5 25.666 -79.5 45.999s-51.667 48.333 -74 84
s-40.5 80.167 -54.5 133.5s-21 118 -21 194c0 60 5.33301 111.833 16 155.5s24.667 80.667 42 111s37 55 59 74s44.667 33.833 68 44.5s46.333 17.834 69 21.501s43 5.5 61 5.5c21.333 0 40.333 -0.5 57 -1.5s32.167 -2.83301 46.5 -5.5s28 -6.33398 41 -11.001
s26.167 -10.334 39.5 -17.001c4 -2 7.83301 -4.83301 11.5 -8.5s5.5 -9.5 5.5 -17.5v-107c0 -8 -2.5 -11.333 -7.5 -10s-11.167 3.33301 -18.5 6c-27.333 10.667 -54.333 18.667 -81 24s-55 8 -85 8c-58.667 0 -104 -24.667 -136 -74s-48 -127 -48 -233
c0 -57.333 5.66699 -105.5 17 -144.5s26.5 -70.5 45.5 -94.5s41.167 -41.167 66.5 -51.5s52.333 -15.5 81 -15.5c16 0 31.167 0.166992 45.5 0.5s28.5 1.5 42.5 3.5s28 4.83301 42 8.5s29 8.83398 45 15.501c4 1.33301 8 2.33301 12 3s6 -2 6 -8v-116zM0.000976562 1098h709
v-33h-709v33zM0.000976562 -189.999h709v-34h-709v34z" />
    <glyph glyph-name="d" unicode="d" horiz-adv-x="770" 
d="M107 0c-7.33301 0 -11 3.66699 -11 11v854c0 6.66699 3.66699 10 11 10h243c48 0 93.167 -11.5 135.5 -34.5s79.5 -54.5 111.5 -94.5s57.167 -86.5 75.5 -139.5s27.5 -109.5 27.5 -169.5s-9.16699 -116.5 -27.5 -169.5s-43.5 -99.333 -75.5 -139s-69.167 -71 -111.5 -94
s-87.5 -34.5 -135.5 -34.5h-243zM350 140c28.667 0 55.834 7.83301 81.501 23.5s48 37 67 64s34 58.5 45 94.5s16.5 74.333 16.5 115s-5.5 79.167 -16.5 115.5s-26 68 -45 95s-41.333 48.333 -67 64s-52.834 23.5 -81.501 23.5h-104c-6.66699 0 -10 -3.33301 -10 -10v-574
c0 -7.33301 3.33301 -11 10 -11h104zM0 1098h770v-33h-770v33zM0 -190h770v-34h-770v34z" />
    <glyph glyph-name="e" unicode="e" horiz-adv-x="700" 
d="M122 865c0 6.66699 3.66699 10 11 10h451c2.66699 0 5.16699 -1 7.5 -3s3.5 -4.33301 3.5 -7v-119c0 -3.33301 -1.16699 -6 -3.5 -8s-4.83301 -3 -7.5 -3h-311c-7.33301 0 -11 -3.33301 -11 -10v-137c0 -2.66699 1 -5.16699 3 -7.5s4.66699 -3.5 8 -3.5h241
c2.66699 0 5.16699 -1 7.5 -3s3.5 -4.33301 3.5 -7v-119c0 -2.66699 -1.16699 -5 -3.5 -7s-4.83301 -3 -7.5 -3h-241c-3.33301 0 -6 -1.16699 -8 -3.5s-3 -4.83301 -3 -7.5v-277c0 -6.66699 3.66699 -10 11 -10h329c6.66699 0 10 -3.66699 10 -11v-118
c0 -7.33301 -3.33301 -11 -10 -11h-469c-7.33301 0 -11 3.66699 -11 11v854zM0 1098h700v-33h-700v33zM0 -190h700v-34h-700v34z" />
    <glyph glyph-name="f" unicode="f" horiz-adv-x="674" 
d="M114 865c0 6.66699 3.66699 10 11 10h469c6.66699 0 10 -3.33301 10 -10v-119c0 -7.33301 -3.33301 -11 -10 -11h-330c-6.66699 0 -10 -3.33301 -10 -10v-277c0 -6.66699 3.33301 -10 10 -10h260c2.66699 0 5 -1.16699 7 -3.5s3 -4.83301 3 -7.5v-119
c0 -6.66699 -3.33301 -10 -10 -10h-260c-2.66699 0 -5 -1.16699 -7 -3.5s-3 -4.83301 -3 -7.5v-276c0 -7.33301 -3.66699 -11 -11 -11h-118c-7.33301 0 -11 3.66699 -11 11v854zM0 1098h674v-33h-674v33zM0 -190h674v-34h-674v34z" />
    <glyph glyph-name="g" unicode="g" horiz-adv-x="753" 
d="M672 411c7.33301 0 10.9971 -3.3252 10.9971 -9.99219v-313c0 -8 -3 -15 -9 -21c-2.66699 -2.66699 -5.66699 -5 -9 -7l-53.5 -29c-16.333 -8.66699 -33.666 -16 -51.999 -22s-39 -10.5 -62 -13.5s-50.833 -4.5 -83.5 -4.5c-53.333 0 -100.333 11.833 -141 35.5
s-74.667 55.667 -102 96s-48 87.666 -62 141.999s-21 111.833 -21 172.5c0 61.333 8.16699 119.166 24.5 173.499s39 101.833 68 142.5s63.5 72.667 103.5 96s83.333 35 130 35c26.667 0 48.5 -0.666992 65.5 -2s32 -3.5 45 -6.5s25.333 -7.33301 37 -13l41.5 -20.5
c3.33301 -1.33301 6.33301 -3 9 -5c6 -3.33301 9 -8.33301 9 -15v-122c0 -4.66699 -1.5 -7.83398 -4.5 -9.50098s-6.5 -2.33398 -10.5 -2.00098s-8 1.33301 -12 3s-7.33301 3.5 -10 5.5c-14.667 9.33301 -28 17.166 -40 23.499s-24.167 11.166 -36.5 14.499
s-26 5.66602 -41 6.99902s-32.5 2 -52.5 2c-28 0 -53.333 -8 -76 -24s-42.167 -38 -58.5 -66s-29 -60.667 -38 -98s-13.5 -77 -13.5 -119s3.16699 -81.5 9.5 -118.5s16.833 -69.333 31.5 -97s33.834 -49.667 57.501 -66s52.834 -24.5 87.501 -24.5c17.333 0 31 0.5 41 1.5
s18.5 2.33301 25.5 4s13.833 3.66699 20.5 6l25 8.5c3.33301 1.33301 6.33301 2.66602 9 3.99902c5.33301 2.66699 8 6 8 10v96c0 6.66699 -3.33301 10 -10 10h-102c-2.66699 0 -5 1.16699 -7 3.5s-3 4.83301 -3 7.5v119c0 6.66699 3.33301 10 10 10h241z
M-0.00292969 1098.01h753v-33h-753v33zM-0.00292969 -189.992h753v-34h-753v34z" />
    <glyph glyph-name="h" unicode="h" horiz-adv-x="769" 
d="M96 865c0 6.66699 3.66699 10 11 10h118c7.33301 0 11 -3.33301 11 -10v-347c0 -6.66699 3.33301 -10 10 -10h277c2.66699 0 5.16699 1 7.5 3s3.5 4.33301 3.5 7v347c0 6.66699 3.33301 10 10 10h119c6.66699 0 10 -3.33301 10 -10v-854c0 -7.33301 -3.33301 -11 -10 -11
h-119c-6.66699 0 -10 3.66699 -10 11v346c0 2.66699 -1.16699 5.16699 -3.5 7.5s-4.83301 3.5 -7.5 3.5h-277c-2.66699 0 -5 -1.16699 -7 -3.5s-3 -4.83301 -3 -7.5v-346c0 -7.33301 -3.66699 -11 -11 -11h-118c-7.33301 0 -11 3.66699 -11 11v854zM0 1098h769v-33h-769v33z
M0 -190h769v-34h-769v34z" />
    <glyph glyph-name="i" unicode="i" horiz-adv-x="384" 
d="M122 864c0 7.33301 3.66699 11 11 11h118c7.33301 0 11 -3.66699 11 -11v-854c0 -6.66699 -3.33301 -10 -10 -10h-119c-7.33301 -0 -11 3.33301 -11 10v854zM0 1098h384v-33h-384v33zM0 -190h384v-34h-384v34z" />
    <glyph glyph-name="j" unicode="j" horiz-adv-x="613" 
d="M359 865c0 6.66699 3.33496 10.0029 10.002 10.0029h119c7.33301 0 11 -3.33301 11 -10v-637c0 -32.667 -6.66699 -63.334 -20 -92.001s-31.5 -53.667 -54.5 -75s-49.833 -38.333 -80.5 -51s-63.667 -19 -99 -19c-30 0 -58.333 4.66699 -85 14s-50.667 21.666 -72 36.999
c-3.33301 2 -7.16602 5.16699 -11.499 9.5s-6.5 9.83301 -6.5 16.5v105c0 5.33301 2.16699 8.66602 6.5 9.99902s8.16602 0.333008 11.499 -3c17.333 -16.667 39.333 -29 66 -37s56 -12 88 -12c16 0 31.167 3.16699 45.5 9.5s26.666 14.833 36.999 25.5
s18.666 23.167 24.999 37.5s9.5 29.5 9.5 45.5v616zM0.00195312 1098h613v-33h-613v33zM0.00195312 -189.997h613v-34h-613v34z" />
    <glyph glyph-name="k" unicode="k" horiz-adv-x="760" 
d="M236 641c0 -2.66699 0.667969 -5.00098 2.00098 -7.00098l40 -53c6 -7.33301 12 -7.33301 18 0l173 289c2 3.33301 5 5 9 5h124c5.33301 0 8.83301 -1.83301 10.5 -5.5s1.5 -7.16699 -0.5 -10.5l-239 -399c-2 -4 -1.66699 -8 1 -12l313 -430
c2.66699 -4.66699 3.16699 -9 1.5 -13s-4.83398 -5.66699 -9.50098 -5h-133c-3.33301 0 -6.33301 1.33301 -9 4l-282 388c-3.33301 3.33301 -7.33301 4.33301 -12 3s-7 -4.66602 -7 -9.99902v-374c0 -7.33301 -3.66699 -11 -11 -11h-118c-7.33301 0 -11 3.66699 -11 11v854
c0 6.66699 3.66699 10 11 10h118c7.33301 0 11 -3.33301 11 -10v-224zM0.000976562 1098h760v-33h-760v33zM0.000976562 -190.001h760v-34h-760v34z" />
    <glyph glyph-name="l" unicode="l" horiz-adv-x="682" 
d="M122 864c0 7.33301 3.66699 11 11 11h118c7.33301 0 11 -3.66699 11 -11v-714c0 -6.66699 3.33301 -10 10 -10h330c6.66699 0 10 -3.66699 10 -11v-119c0 -6.66699 -3.33301 -10 -10 -10h-469c-7.33301 -0 -11 3.33301 -11 10v854zM0 1098h682v-33h-682v33zM0 -190h682
v-34h-682v34z" />
    <glyph glyph-name="m" unicode="m" horiz-adv-x="884" 
d="M70 865c0 6.66699 3.66699 10 11 10h148c5.33301 0 9 -1.66699 11 -5l192 -387c2.66699 -4 6 -6 10 -6s7.33301 2 10 6l192 387c2 3.33301 5.33301 5 10 5h149c7.33301 0 11 -3.33301 11 -10v-854c0 -7.33301 -3.66699 -11 -11 -11h-119c-6.66699 0 -10 3.66699 -10 11
v540c0 5.33301 -2.83301 8.5 -8.5 9.5s-9.5 -0.833008 -11.5 -5.5l-202 -404c-2.66699 -4.66699 -6 -7 -10 -7s-7.33301 2.33301 -10 7l-203 404c-2.66699 5.33301 -6.5 7.5 -11.5 6.5s-7.5 -4.5 -7.5 -10.5v-540c0 -7.33301 -3.66699 -11 -11 -11h-118
c-7.33301 0 -11 3.66699 -11 11v854zM0 1098h884v-33h-884v33zM0 -190h884v-34h-884v34z" />
    <glyph glyph-name="n" unicode="n" horiz-adv-x="769" 
d="M96 865c0 6.66699 3.66797 9.99707 11.001 9.99707h122c5.33301 0 8.66602 -1.66699 9.99902 -5l275 -550c3.33301 -5.33301 7.5 -7.66602 12.5 -6.99902s7.5 4.33398 7.5 11.001v541c0 6.66699 3.33301 10 10 10h119c6.66699 0 10 -3.33301 10 -10v-854
c0 -7.33301 -3.33301 -11 -10 -11h-122c-5.33301 0 -9 1.66699 -11 5l-275 550c-2.66699 5.33301 -6.5 7.83301 -11.5 7.5s-7.5 -4.16602 -7.5 -11.499v-540c0 -7.33301 -3.66699 -11 -11 -11h-118c-7.33301 0 -11 3.66699 -11 11v854zM0.000976562 1098h769v-33h-769v33z
M0.000976562 -190.003h769v-34h-769v34z" />
    <glyph glyph-name="o" unicode="o" horiz-adv-x="770" 
d="M691 437c0 -60.667 -7.99902 -118.169 -23.999 -172.502s-38 -101.666 -66 -141.999s-60.5 -72.333 -97.5 -96s-76.5 -35.5 -118.5 -35.5s-81.5 11.833 -118.5 35.5s-69.5 55.667 -97.5 96s-50 87.666 -66 141.999s-24 111.833 -24 172.5c0 36 2.83301 70.833 8.5 104.5
s13.834 65.5 24.501 95.5c0.666992 1.33301 2 2.33301 4 3c1.33301 0.666992 3 1 5 1s4.66699 -1.33301 8 -4l92 -78c6 -5.33301 9 -9 9 -11s-0.666992 -6 -2 -12c-6 -30.667 -9 -63.667 -9 -99c0 -42 4.33301 -81.5 13 -118.5s20.5 -69.333 35.5 -97s32.667 -49.667 53 -66
s41.833 -24.5 64.5 -24.5s44.167 8.16699 64.5 24.5s38 38.333 53 66s27 60 36 97s13.5 76.5 13.5 118.5s-4.5 81.667 -13.5 119s-21 70 -36 98s-32.667 50 -53 66s-41.833 24 -64.5 24c-32 0 -61.333 -15.333 -88 -46c-1.33301 -2.66699 -3.33301 -4.66699 -6 -6
c-5.33301 -2.66699 -11 -1 -17 5l-76 65c-6 4.66699 -8.33301 9.83398 -7 15.501s4.66602 11.167 9.99902 16.5c25.333 28 53.666 50 84.999 66s64.333 24 99 24c42 0 81.5 -11.667 118.5 -35s69.5 -55.333 97.5 -96s50 -88.167 66 -142.5s24 -112.166 24 -173.499z
M0.000976562 1098h770v-33h-770v33zM0.000976562 -190.002h770v-34h-770v34z" />
    <glyph glyph-name="p" unicode="p" horiz-adv-x="735" 
d="M393 333c-7.33301 0 -12 2.66504 -14 7.99805l-26 119c-2 6 0.333008 10.333 7 13h35c17.333 0 33.833 3.5 49.5 10.5s29.5 16.333 41.5 28s21.5 25.5 28.5 41.5s10.5 33 10.5 51s-3.5 35 -10.5 51s-16.5 29.833 -28.5 41.5s-26 21 -42 28s-33 10.5 -51 10.5h-121
c-6.66699 0 -10 -3.33301 -10 -10v-714c0 -7.33301 -3.66699 -11 -11 -11h-118c-7.33301 0 -11 3.66699 -11 11v854c0 6.66699 3.66699 10 11 10h260c37.333 0 72.5 -7.16699 105.5 -21.5s61.833 -33.666 86.5 -57.999s44.167 -53 58.5 -86s21.5 -68.167 21.5 -105.5
s-7.16699 -72.5 -21.5 -105.5s-33.833 -61.667 -58.5 -86s-53.5 -43.666 -86.5 -57.999s-68.167 -21.5 -105.5 -21.5zM0 1098h735v-33h-735v33zM0 -190.002h735v-34h-735v34z" />
    <glyph glyph-name="q" unicode="q" horiz-adv-x="787" 
d="M385 -9c-46 0 -87.8359 9.49805 -125.503 28.498s-69.834 47.167 -96.501 84.5s-47.334 83.833 -62.001 139.5s-22 120.167 -22 193.5c0 74 7.33301 138.833 22 194.5s35.334 102.167 62.001 139.5s58.834 65.5 96.501 84.5s79.5 28.5 125.5 28.5
c46.667 0 88.834 -9.5 126.501 -28.5s69.834 -47.167 96.501 -84.5s47.167 -83.833 61.5 -139.5s21.5 -120.5 21.5 -194.5c0 -58 -4.5 -110.167 -13.5 -156.5s-21.833 -87.166 -38.5 -122.499c-1.33301 -2 -2.33301 -4.16699 -3 -6.5s-1.66699 -4.16602 -3 -5.49902
c-1.33301 -2 -2.33301 -4 -3 -6c-2 -3.33301 -2 -6.66602 0 -9.99902l84 -112c3.33301 -4.66699 4 -8.83398 2 -12.501s-5.66699 -5.5 -11 -5.5h-148c-4 -0 -7 1.33301 -9 4l-9 14c-5.33301 8 -12.666 9.66699 -21.999 5c-39.333 -21.333 -83.333 -32 -132 -32z
M384.997 130.998c13.333 0 24.999 2.00391 34.999 6.00391s14.5 9.16699 13.5 15.5s-3.5 12.166 -7.5 17.499l-28 39l-31 42l-36 47c-3.33301 4.66699 -4 8.66699 -2 12s5.66699 5 11 5h148c4.66699 0 8.33398 -2 11.001 -6l18 -25
c3.33301 -4.66699 7.33301 -6.33398 12 -5.00098s7.66699 5.66602 9 12.999c4 20.667 7.5 43 10.5 67s4.5 50 4.5 78c0 102.667 -15.5 179.5 -46.5 230.5s-71.5 76.5 -121.5 76.5c-49.333 0 -89.333 -25.667 -120 -77s-46 -128 -46 -230
c0 -100.667 15.333 -176.834 46 -228.501s70.667 -77.5 120 -77.5zM-0.00390625 1098h787v-33h-787v33zM-0.00390625 -189.998h787v-34h-787v34z" />
    <glyph glyph-name="r" unicode="r" horiz-adv-x="759" 
d="M225 875c7.33301 0 11.001 -3.33594 11.001 -10.0029v-382c0 -2.66699 1 -5.16699 3 -7.5s4.33301 -3.5 7 -3.5h121c18 0 35 3.5 51 10.5s30 16.5 42 28.5s21.5 26 28.5 42s10.5 33 10.5 51s-3.5 35 -10.5 51s-16.5 29.833 -28.5 41.5s-25.833 21 -41.5 28
s-32.167 10.5 -49.5 10.5h-35c-5.33301 0 -8 1.33301 -8 4s0.333008 5.33398 1 8.00098l26 119c2 6 6.66699 9 14 9c37.333 0 72.5 -7.16699 105.5 -21.5s61.833 -33.666 86.5 -57.999s44.167 -53 58.5 -86s21.5 -68.167 21.5 -105.5c0 -30 -5 -58.167 -15 -84.5
s-23.5 -50.333 -40.5 -72s-37 -41 -60 -58s-47.5 -31.167 -73.5 -42.5c-4.66699 -2 -8 -4.66699 -10 -8s-1.66699 -6.66602 1 -9.99902l245 -311c3.33301 -4 4.16602 -8 2.49902 -12s-4.83398 -6 -9.50098 -6h-131c-3.33301 -0 -6.33301 1.33301 -9 4l-257 325
c-1.33301 2.66699 -3.66602 4 -6.99902 4h-29c-6.66699 0 -10 -3.66699 -10 -11v-311c0 -7.33301 -3.66699 -11 -11 -11h-118c-7.33301 0 -11 3.66699 -11 11v854c0 6.66699 3.66699 10 11 10h118zM0.000976562 1098h759v-33h-759v33zM0.000976562 -190.003h759v-34h-759v34
z" />
    <glyph glyph-name="s" unicode="s" horiz-adv-x="744" 
d="M613 684c0 -7.33301 -2.5 -10.8389 -7.5 -10.5059s-11.167 2.83301 -18.5 7.5c-30.667 18.667 -64.5 33.834 -101.5 45.501s-76.167 17.5 -117.5 17.5c-42 0 -73 -10.5 -93 -31.5s-30 -48.5 -30 -82.5c0 -20 13.667 -40 41 -60s66.333 -40.667 117 -62
c26 -10.667 53.5 -24.167 82.5 -40.5s55.5 -35.166 79.5 -56.499s43.833 -45.833 59.5 -73.5s23.5 -58.5 23.5 -92.5c0 -45.333 -9.5 -84.166 -28.5 -116.499s-42.5 -58.666 -70.5 -78.999s-58.333 -35.166 -91 -44.499s-62.667 -14 -90 -14
c-25.333 0 -49.666 2.66699 -72.999 8s-45.833 12.5 -67.5 21.5s-42.667 19 -63 30s-39.833 22.167 -58.5 33.5c-6.66699 4 -11.334 7.33301 -14.001 10s-4 7.66699 -4 15v106c0 7.33301 2.33301 10.833 7 10.5s11 -3.16602 19 -8.49902c21.333 -14 43.5 -26.333 66.5 -37
s45.5 -19.667 67.5 -27s43.333 -12.833 64 -16.5s39.334 -5.5 56.001 -5.5c17.333 0 34.333 2.5 51 7.5s31.5 12.167 44.5 21.5s23.667 21.166 32 35.499s12.5 30.833 12.5 49.5c0 13.333 -4.66699 26.333 -14 39s-21.833 25 -37.5 37s-33.667 23.333 -54 34
s-41.833 20.667 -64.5 30s-47.5 20.333 -74.5 33s-52.167 28.5 -75.5 47.5s-42.833 41.833 -58.5 68.5s-23.5 58.667 -23.5 96c0 40 7.16699 75.833 21.5 107.5s33.666 58.334 57.999 80.001s52.333 38.167 84 49.5s64.5 17 98.5 17c31.333 0 58.166 -1.83301 80.499 -5.5
s42.333 -8.5 60 -14.5s33.334 -13 47.001 -21s26.834 -16.333 39.501 -25c7.33301 -5.33301 12.166 -9.5 14.499 -12.5s3.5 -8.16699 3.5 -15.5v-106zM0 1097.99h744v-33h-744v33zM0 -190.006h744v-34h-744v34z" />
    <glyph glyph-name="t" unicode="t" horiz-adv-x="700" 
d="M70 865c0 6.66699 3.66699 10 11 10h538c7.33301 0 11 -3.33301 11 -10v-119c0 -7.33301 -3.66699 -11 -11 -11h-188c-7.33301 0 -11 -3.33301 -11 -10v-714c0 -7.33301 -3.33301 -11 -10 -11h-119c-7.33301 0 -11 3.66699 -11 11v714c0 6.66699 -3.33301 10 -10 10h-189
c-7.33301 0 -11 3.66699 -11 11v119zM0 1098h700v-33h-700v33zM0 -190h700v-34h-700v34z" />
    <glyph glyph-name="u" unicode="u" horiz-adv-x="769" 
d="M673 280c0 -40 -7.50098 -77.5 -22.501 -112.5s-35.5 -65.5 -61.5 -91.5s-56.5 -46.667 -91.5 -62s-72.5 -23 -112.5 -23s-77.5 7.66699 -112.5 23s-65.667 36 -92 62s-47 56.5 -62 91.5s-22.5 72.5 -22.5 112.5v585c0 6.66699 3.66699 10 11 10h118
c7.33301 0 11 -3.33301 11 -10v-585c0 -20.667 4 -40 12 -58s18.667 -33.667 32 -47s29 -24 47 -32s37.333 -12 58 -12s40 4 58 12s33.833 18.667 47.5 32s24.334 29 32.001 47s11.5 37.333 11.5 58v585c0 6.66699 3.33301 10 10 10h119c6.66699 0 10 -3.33301 10 -10v-585z
M-0.000976562 1098h769v-33h-769v33zM-0.000976562 -190h769v-34h-769v34z" />
    <glyph glyph-name="v" unicode="v" horiz-adv-x="763" 
d="M71 861c-2 7.33301 0.331055 12 6.99805 14h120c5.33301 0 9 -2.33301 11 -7l163 -583c0.666992 -2.66699 3 -5 7 -7c7.33301 -1.33301 12 1.66699 14 9l162 581c2.66699 4.66699 6.33398 7 11.001 7h117c6.66699 0 10 -3.33301 10 -10v-4l-239 -854
c-1.33301 -1.33301 -2.66602 -2.83301 -3.99902 -4.5s-3.66602 -2.5 -6.99902 -2.5h-122c-2.66699 -0 -4.83398 0.833008 -6.50098 2.5l-4.5 4.5zM-0.00195312 1098h763v-33h-763v33zM-0.00195312 -190h763v-34h-763v34z" />
    <glyph glyph-name="w" unicode="w" horiz-adv-x="752" 
d="M70 863c0 6 3.33203 10 9.99902 12h92c5.33301 0 9 -3 11 -9l77 -381c1.33301 -5.33301 4.66602 -8 9.99902 -8c6 0 9.66699 2.66699 11 8l62 381c2 6 6 9 12 9h42c6 0 10 -3 12 -9l59 -381c1.33301 -5.33301 5 -8 11 -8c6.66699 0 10.667 2.66699 12 8l77 381
c3.33301 6 7.33301 9 12 9h91c2.66699 0 5.16699 -1 7.5 -3s3.5 -4.33301 3.5 -7v-2l-171 -854c0 -2.66699 -1.16699 -4.83398 -3.5 -6.50098s-5.16602 -2.5 -8.49902 -2.5h-62c-2.66699 0 -5.16699 0.833008 -7.5 2.5s-3.5 3.83398 -3.5 6.50098l-38 315
c-0.666992 6.66699 -4.66699 10 -12 10c-6.66699 0 -10.334 -3.33301 -11.001 -10l-39 -315c0 -2.66699 -1.16699 -4.83398 -3.5 -6.50098s-5.16602 -2.5 -8.49902 -2.5h-61c-3.33301 0 -6.16602 0.833008 -8.49902 2.5s-3.5 3.83398 -3.5 6.50098zM-0.000976562 1098h752
v-33h-752v33zM-0.000976562 -190h752v-34h-752v34z" />
    <glyph glyph-name="x" unicode="x" horiz-adv-x="757" 
d="M369 600c2 -4 5.00098 -6 9.00098 -6s7 2 9 6l145 270c2 3.33301 5.66699 5 11 5h115c5.33301 0 8.66602 -1.83301 9.99902 -5.5s1 -7.16699 -1 -10.5l-215 -401c-1.33301 -3.33301 -1.33301 -6.66602 0 -9.99902l232 -432c2.66699 -4 3.16699 -7.66699 1.5 -11
s-5.16699 -5 -10.5 -5h-115c-5.33301 0 -8.66602 1.66699 -9.99902 5l-163 301c-2 4 -5 6 -9 6s-7 -2 -9 -6l-163 -301c-2 -3.33301 -5.33301 -5 -10 -5h-115c-4.66699 0 -7.83398 1.83301 -9.50098 5.5s-1.5 7.16699 0.5 10.5l233 432c2 3.33301 2 6.66602 0 9.99902
l-216 401c-4.66699 10.667 -1.66699 16 9 16h115c5.33301 0 9 -1.66699 11 -5zM0.000976562 1098h757v-33h-757v33zM0.000976562 -190h757v-34h-757v34z" />
    <glyph glyph-name="y" unicode="y" horiz-adv-x="732" 
d="M71 859c-1.33301 4.66699 -1 8.5 1 11.5s4.66699 4.5 8 4.5h117c4.66699 0 8 -2.33301 10 -7l149 -329c2 -4 5.66699 -6 11 -6s8.66602 2 9.99902 6l147 329c2 4.66699 5.66699 7 11 7h117c4 0 6.83301 -1.83301 8.5 -5.5s1.83398 -7.16699 0.500977 -10.5l-223 -470
c-0.666992 -2 -1 -4 -1 -6v-372c0 -7.33301 -3.66699 -11 -11 -11h-119c-6.66699 0 -10 3.66699 -10 11v372c0 2 -0.333008 3.66699 -1 5zM0 1098h732v-33h-732v33zM0 -190h732v-34h-732v34z" />
    <glyph glyph-name="z" unicode="z" horiz-adv-x="716" 
d="M621 11c0 -7.33301 -3.33203 -11 -9.99902 -11h-530c-7.33301 0 -11 3.66699 -11 11v126c0 2.66699 0.666992 5 2 7l380 575c2.66699 4 3.16699 7.66699 1.5 11s-4.5 5 -8.5 5h-329c-7.33301 0 -11 3.66699 -11 11v119c0 6.66699 3.66699 10 11 10h495
c6.66699 0 10 -3.33301 10 -10v-125c0 -3.33301 -0.666992 -6 -2 -8l-380 -576c-3.33301 -4.66699 -3.83301 -8.5 -1.5 -11.5s5.16602 -4.5 8.49902 -4.5h365c6.66699 0 10 -3.33301 10 -10v-119zM0.000976562 1098h716v-33h-716v33zM0.000976562 -190h716v-34h-716v34z" />
    <glyph glyph-name="braceleft" unicode="{" horiz-adv-x="842" 
d="M842 1065l-666 -0.000976562c-17.333 0 -32.166 -6.66699 -44.499 -20s-18.5 -28.666 -18.5 -45.999v-1124c0 -17.333 6.16699 -32.5 18.5 -45.5s27.166 -19.5 44.499 -19.5h666v-34h-666c-27.333 0 -50.333 9.5 -69 28.5s-28 42.5 -28 70.5v1124c0 14 2.5 27 7.5 39
s11.833 22.5 20.5 31.5s19 16 31 21s24.667 7.5 38 7.5h666v-33zM679 1064v-1253h-503c-16.667 0 -31.167 6.33301 -43.5 19s-18.5 27.667 -18.5 45v1124c0 17.333 6.16699 32.5 18.5 45.5s26.833 19.5 43.5 19.5h503zM210 37.999h37v189l112 -189h38v250h-38v-189l-112 189
h-37v-250zM428 37.999h149v29h-117v221h-32v-250zM482 534.999h-22l17 -13l-5 -23l19 14l17 -14l-6 23l18 13h-22l-7 23zM296 534.999h-22l17 -13l-7 -23l20 14l16 -14l-6 23l17 13h-22l-7 23zM552 793.999h-22l17 -14l-7 -21l21 10l16 -10l-6 21l17 14h-23l-6 20z
M201 695.999h-22l18 -13l-8 -23l21 15l16 -15l-6 23l17 13h-23l-6 22zM577 698.999h-23l18 -13l-7 -23l19 16l18 -16l-8 23l17 13h-21l-6 21zM226 602.999h-23l18 -14l-7 -20l20 14l17 -14l-8 20l18 14h-22l-5 22zM552 602.999h-22l17 -14l-7 -20l21 14l16 -14l-6 20l17 14
h-23l-4 22zM482 860.999h-22l17 -11l-6 -24l20 14l17 -14l-8 24l18 11h-24l-5 20zM390 888.999h-23l16 -12l-7 -23l21 14l17 -14l-6 23l16 12h-23l-5 22zM293 860.999h-22l17 -11l-8 -24l21 15l17 -15l-7 24l17 11h-22l-5 23zM226 790.999h-23l18 -13l-7 -23l20 14l17 -14
l-8 23l18 13h-22l-5 23zM390 509.999h-23l16 -12l-7 -22l21 14l17 -14l-6 22l16 12h-23l-4 23z" />
    <glyph glyph-name="bar" unicode="|" horiz-adv-x="350" 
 />
    <glyph glyph-name="braceright" unicode="}" horiz-adv-x="349" 
d="M0 1098l164 0.000976562c13.333 0 26 -2.5 38 -7.5s22.333 -12 31 -21s15.5 -19.5 20.5 -31.5s7.5 -25 7.5 -39v-1124c0 -28 -9.33301 -51.5 -28 -70.5s-41.667 -28.5 -69 -28.5h-164v34h164c17.333 0 32.166 6.5 44.499 19.5s18.5 28.167 18.5 45.5v1124
c0 17.333 -6.16699 32.666 -18.5 45.999s-27.166 20 -44.499 20h-164v33z" />
    <glyph glyph-name="uni00A0" unicode="&#xa0;" horiz-adv-x="350" 
 />
    <glyph glyph-name="onesuperior" unicode="&#xb9;" horiz-adv-x="385" 
d="M70 550c0 6.66699 3.66699 10 11 10h224c6.66699 0 10 -3.33301 10 -10v-102c0 -2.66699 -1 -5.16699 -3 -7.5s-4.33301 -3.5 -7 -3.5h-224c-3.33301 0 -6 1.16699 -8 3.5s-3 4.83301 -3 7.5v102zM245 676c0 -7.33301 -3.33301 -11.002 -10 -11.002h-67
c-6.66699 0 -10 3.66699 -10 11v169c0 4 -1.5 6.83301 -4.5 8.5s-6.16699 1.83398 -9.5 0.500977l-25 -9c-3.33301 -1.33301 -6.5 -1.16602 -9.5 0.500977s-4.5 5.16699 -4.5 10.5v49c0 4 1.66699 7 5 9l61 37c3.33301 2 6 3 8 3h56c6.66699 0 10 -3.66699 10 -11v-267z" />
    <glyph glyph-name="glyph86" 
 />
    <glyph glyph-name="glyph87" 
 />
    <glyph glyph-name="glyph88" 
 />
    <glyph glyph-name="glyph89" 
 />
    <glyph glyph-name="glyph90" 
 />
    <glyph glyph-name="glyph91" 
 />
    <glyph glyph-name="glyph92" 
 />
    <glyph glyph-name="glyph93" 
 />
    <glyph glyph-name="glyph94" 
 />
    <glyph glyph-name="glyph95" 
 />
    <glyph glyph-name="glyph96" 
 />
    <glyph glyph-name="glyph97" 
 />
    <glyph glyph-name="glyph98" 
 />
    <glyph glyph-name="glyph99" 
 />
    <glyph glyph-name="glyph100" 
 />
    <glyph glyph-name="glyph101" 
 />
    <glyph glyph-name="glyph102" 
 />
    <glyph glyph-name="glyph103" 
 />
    <glyph glyph-name="glyph104" 
 />
    <glyph glyph-name="glyph105" 
 />
    <glyph glyph-name="glyph106" 
 />
    <glyph glyph-name="glyph107" 
 />
    <glyph glyph-name="glyph108" 
 />
    <glyph glyph-name="glyph109" 
 />
    <glyph glyph-name="glyph110" 
 />
    <glyph glyph-name="glyph111" 
 />
    <glyph glyph-name="glyph112" 
 />
    <glyph glyph-name="glyph113" 
 />
    <glyph glyph-name="glyph114" 
 />
    <glyph glyph-name="glyph115" 
 />
    <glyph glyph-name="glyph116" 
 />
    <glyph glyph-name="glyph117" 
 />
    <glyph glyph-name="glyph118" 
 />
    <glyph glyph-name="glyph119" 
 />
    <glyph glyph-name="glyph120" 
 />
    <glyph glyph-name="glyph121" 
 />
    <glyph glyph-name="glyph122" 
 />
    <glyph glyph-name="glyph123" 
 />
    <glyph glyph-name="glyph124" 
 />
    <glyph glyph-name="glyph125" 
 />
    <glyph glyph-name="glyph126" 
 />
    <glyph glyph-name="glyph127" 
 />
    <glyph glyph-name="glyph128" 
 />
    <glyph glyph-name="glyph129" 
 />
    <glyph glyph-name="glyph130" 
 />
    <glyph glyph-name="glyph131" 
 />
    <glyph glyph-name="glyph132" 
 />
    <glyph glyph-name="glyph133" 
 />
    <glyph glyph-name="glyph134" 
 />
    <glyph glyph-name="glyph135" 
 />
    <glyph glyph-name="glyph136" 
 />
    <glyph glyph-name="glyph137" 
 />
    <glyph glyph-name="glyph138" 
 />
    <glyph glyph-name="glyph139" 
 />
    <glyph glyph-name="glyph140" 
 />
    <glyph glyph-name="glyph141" 
 />
    <glyph glyph-name="glyph142" 
 />
    <glyph glyph-name="glyph143" 
 />
    <glyph glyph-name="glyph144" 
 />
    <glyph glyph-name="glyph145" 
 />
    <glyph glyph-name="glyph146" 
 />
    <glyph glyph-name="glyph147" 
 />
    <glyph glyph-name="glyph148" 
 />
    <glyph glyph-name="glyph149" 
 />
    <glyph glyph-name="glyph150" 
 />
    <glyph glyph-name="glyph151" 
 />
    <glyph glyph-name="glyph152" 
 />
    <glyph glyph-name="glyph153" 
 />
    <glyph glyph-name="glyph154" 
 />
    <glyph glyph-name="glyph155" 
 />
    <glyph glyph-name="glyph156" 
 />
    <glyph glyph-name="glyph157" 
 />
    <glyph glyph-name="glyph158" 
 />
    <glyph glyph-name="glyph159" 
 />
    <glyph glyph-name="glyph160" 
 />
    <glyph glyph-name="glyph161" 
 />
    <glyph glyph-name="glyph162" 
 />
    <glyph glyph-name="glyph163" 
 />
    <glyph glyph-name="glyph164" 
 />
    <glyph glyph-name="glyph165" 
 />
    <glyph glyph-name="glyph166" 
 />
    <glyph glyph-name="glyph167" 
 />
    <glyph glyph-name="glyph168" 
 />
    <glyph glyph-name="glyph169" 
 />
    <glyph glyph-name="glyph170" 
 />
    <glyph glyph-name="glyph171" 
 />
    <glyph glyph-name="glyph172" 
 />
    <glyph glyph-name="glyph173" 
 />
    <glyph glyph-name="glyph174" 
 />
    <glyph glyph-name="glyph175" 
 />
    <glyph glyph-name="glyph176" 
 />
    <glyph glyph-name="glyph177" 
 />
    <glyph glyph-name="glyph178" 
 />
    <glyph glyph-name="glyph179" 
 />
    <glyph glyph-name="glyph180" 
 />
    <glyph glyph-name="glyph181" 
 />
    <glyph glyph-name="glyph182" 
 />
    <glyph glyph-name="glyph183" 
 />
    <glyph glyph-name="glyph184" 
 />
    <glyph glyph-name="glyph185" 
 />
    <glyph glyph-name="glyph186" 
 />
    <glyph glyph-name="glyph187" 
 />
    <glyph glyph-name="glyph188" 
 />
    <glyph glyph-name="glyph189" 
 />
    <glyph glyph-name="glyph190" 
 />
    <glyph glyph-name="glyph191" 
 />
    <glyph glyph-name="glyph192" 
 />
    <glyph glyph-name="glyph193" 
 />
    <glyph glyph-name="glyph194" 
 />
    <glyph glyph-name="glyph195" 
 />
    <glyph glyph-name="glyph196" 
 />
    <glyph glyph-name="glyph197" 
 />
    <glyph glyph-name="glyph198" 
 />
    <glyph glyph-name="glyph199" 
 />
    <glyph glyph-name="glyph200" 
 />
    <glyph glyph-name="glyph201" 
 />
    <glyph glyph-name="glyph202" 
 />
    <glyph glyph-name="glyph203" 
 />
    <glyph glyph-name="glyph204" 
 />
    <glyph glyph-name="glyph205" 
 />
    <glyph glyph-name="glyph206" 
 />
    <glyph glyph-name="glyph207" 
 />
    <glyph glyph-name="glyph208" 
 />
    <glyph glyph-name="glyph209" 
 />
    <glyph glyph-name="glyph210" 
 />
    <glyph glyph-name="glyph211" 
 />
    <glyph glyph-name="glyph212" 
 />
    <glyph glyph-name="glyph213" 
 />
    <glyph glyph-name="glyph214" 
 />
    <glyph glyph-name=".null" 
 />
  </font>
</defs>
</svg>
